<svg xmlns="http://www.w3.org/2000/svg" xmlns:xlink="http://www.w3.org/1999/xlink" width="349" height="293.68" viewBox="0 0 349 293.68"><defs><radialGradient id="a" cx="0.5" cy="0.5" r="0.5" gradientUnits="objectBoundingBox"><stop offset="0" stop-color="#fbc738"/><stop offset="0.489" stop-color="#fbc738"/><stop offset="0.724" stop-color="#f8bd30"/><stop offset="1" stop-color="#eea509"/></radialGradient></defs><g transform="translate(-1257 -369)"><g transform="translate(1306.03 389.32)"><path d="M432.348,600.6a1.183,1.183,0,0,0,1.188,1.04c4.8.4,9.557,1.287,14.36,1.931,4.952.693,9.854,1.585,14.756,2.525a155.132,155.132,0,0,1,22.234,6.041c5.794,2.08,11.439,4.605,15.7,9.359a7.677,7.677,0,0,1,.049,9.656c-3.318,3.664-7.428,5.893-11.983,7.824a126.83,126.83,0,0,1-21.59,6.734,249.963,249.963,0,0,1-29.018,4.9c-9.854,1.04-19.708,2.03-29.612,2.624-15.054.891-30.107.99-45.161.743-6.784-.1-13.618-.4-20.4-.941-11.686-.891-23.323-2.129-34.91-3.813a208.914,208.914,0,0,1-32.583-7.131c-6.388-1.981-12.776-4.258-17.975-8.765-4.457-3.912-5.794-8.171-.99-12.974,3.367-3.367,7.477-5.2,11.686-6.982,10-4.259,20.6-6.487,31.2-8.517,6.338-1.188,12.776-1.783,19.164-2.823,1.733-.3,3.615,0,5.15-1.089a1.726,1.726,0,0,1,1.238,1.089c2.773,5.794,7.329,9.953,12.429,13.568a103.158,103.158,0,0,0,14.311,8.27c2.327,1.188,2.476,2.03.842,3.862a48.268,48.268,0,0,1-9.9,1.733c-3.169.446-6.437.248-9.557.941a14.839,14.839,0,0,0-7.329,3.862c-2.575,2.525-2.525,5.051.2,7.428a17.069,17.069,0,0,0,13.073,4.16,21.826,21.826,0,0,0,9.854-3.021c2.03-1.139,3.565-2.922,5.5-4.209a7.659,7.659,0,0,1,2.575-1.387c3.615,1.04,7.081-.049,10.5-.891,2.08-.644,4.209-1.04,6.289-1.634,2.278-.4,4.457-1.287,6.784-.4,4.605,1.486,9.458,2.228,14.162,3.417,1.387.347,2.575-.347,3.862-.5,1.684,0,2.823,1.139,4.011,2.129,3.219,2.674,6.437,5.249,10.745,5.893a18.257,18.257,0,0,0,16.193-3.021c3.516-2.575,3.664-5.5.347-8.369a15.623,15.623,0,0,0-9.012-3.763c-2.476-.2-4.9-.5-7.378-.594a41.193,41.193,0,0,1-10.1-1.783,2.112,2.112,0,0,1-1.04-2.08c.2-1.188,1.238-1.386,2.129-1.783a96.216,96.216,0,0,0,11.29-6.239c4.605-3.021,9.012-6.19,12.33-10.7a33.541,33.541,0,0,0,2.872-4.556C431.209,601.64,431.259,600.65,432.348,600.6Z" transform="translate(-253.378 -380.737)" fill="#d9eefe"/><path d="M485.214,419.207a42.205,42.205,0,0,1,12.33,2.872,17.079,17.079,0,0,1,4.853,3.268,2.475,2.475,0,0,1,1.337,2.426c-.4,4.8.644,9.508.3,14.311-.3,3.862-1.436,5.15-5.3,5.2a123.963,123.963,0,0,1-12.875-.1c-3.417-.3-6.784-.644-10.2.05a9.959,9.959,0,0,1-5.348-.545,5.385,5.385,0,0,0-3.417.1,14.9,14.9,0,0,1-8.071,0,5.243,5.243,0,0,0-3.367-.1c-2.525,1.04-4.853.1-7.18-.743a3.387,3.387,0,0,1-2.08-2.872c-.1-5.15.99-10.25.545-15.4a1.965,1.965,0,0,1,1.387-2.327c4.7-4.457,10.745-5.348,16.836-6.091a11.215,11.215,0,0,1,4.506-.99,64.419,64.419,0,0,1,13.469.248A4.71,4.71,0,0,1,485.214,419.207Z" transform="translate(-350.711 -288.577)" fill="#fbc738"/><path d="M424.555,452.546a7.131,7.131,0,0,0,8.319,2.971,5.128,5.128,0,0,1,4.011-.049,11.764,11.764,0,0,0,7.923,0,4.564,4.564,0,0,1,3.12-.3,12.761,12.761,0,0,0,9.557,0,3.636,3.636,0,0,1,2.179-.049c6.239,1.882,12.578.5,18.866.792,1.783.1,2.674-2.03,2.773-4.209.248-4.655-.743-9.26-.347-13.915a4.2,4.2,0,0,1,.446-1.089c1.089.3,2.129.743,2.377,2.03,4.061,4.754,8.22,9.409,12.231,14.212a64.586,64.586,0,0,1,7.23,9.953c.4,1.981-1.337,2.426-2.476,3.021-1.733.941-3.367,1.981-5.051,3.021a6.773,6.773,0,0,0-2.823,2.971c-.891,2.327-1.931,2.228-3.466.743a2.562,2.562,0,0,0-.644-.3,9.433,9.433,0,0,1-3.318-2.426,1.589,1.589,0,0,0-2.327-.4c-1.634,1.882-4.16,1.832-6.239,2.724-1.238.545-2.03-.545-1.436-1.882a30.012,30.012,0,0,1,2.377-3.763c1.04-1.634.545-2.575-1.387-2.922-.347-.049-.644-.049-.99-.1-5.6-.248-11.191-.3-16.737-.4-4.655-.1-9.359.644-14.014.248-5.3-.446-10.5.3-15.747.1h-.99c-3.912.149-5.15,1.585-4.556,5.348a1.985,1.985,0,0,1-1.089,1.486,1.689,1.689,0,0,0-2.476-.05,45.927,45.927,0,0,1-4.457,3.763,3.14,3.14,0,0,1-1.535.842c-1.287-.149-.842-1.188-.941-1.931a2.817,2.817,0,0,0-2.327-2.773c-2.525-.644-4.556-2.228-6.635-3.714-1.387-.99-1.981-2.228-.743-3.763.446-1.684,2.03-2.724,2.624-4.308.5-1.287.693-2.823,2.674-2.476.99,1.287,2.426,1.337,3.813,1.188a6.769,6.769,0,0,1,6.338,2.476,2.9,2.9,0,0,0,3.219,1.287c1.486-.5,1.337-1.882,1.436-3.07C423.515,456.111,423.465,454.18,424.555,452.546Z" transform="translate(-328.676 -297.998)" fill="#f9bf31"/><path d="M590.091,583.625c-3.219,7.873-9.26,13.073-16.292,17.381-1.089-.049-1.783.743-2.674,1.188-2.03,1.089-3.219.644-3.862-1.585a24.609,24.609,0,0,1-.4-10.052c.644-4.605,1.139-9.062-.4-13.667a14.817,14.817,0,0,1-.347-7.081c1.04-1.585,2.773-1.783,4.358-2.278,2.426-.5,4.853-1.04,7.23.2a48.708,48.708,0,0,1,5.447,1.387c5.942,2.179,8.418,6.784,7.131,12.974A14.409,14.409,0,0,1,590.091,583.625Z" transform="translate(-411.121 -363.763)" fill="#014493"/><path d="M458.881,355.155c-.594-1.436-1.684-2.625-1.882-4.209-.347-2.823-.594-5.645,2.525-7.23a1.381,1.381,0,0,0,.743-1.188,1.234,1.234,0,0,1,1.287-.5c4.9.792,9.26-1.089,13.568-2.922,1.733-.743,3.516-1.486,5.3-2.129a11.136,11.136,0,0,1,7.279-.347,67.652,67.652,0,0,0,11.736,2.426c.693,2.129,1.139,4.16,3.07,5.893,2.228,1.981,1.684,6.14-.594,9.309-3.466.2-6.933-.594-10.448-.1a58.335,58.335,0,0,1-9.755.049c-4.9-.1-9.755.1-14.657-.248-1.139-.1-2.278-.049-3.417-.248-1.882-.347-3.07.248-3.07,2.377C459.426,356.789,459.178,355.947,458.881,355.155Z" transform="translate(-356.07 -247.253)" fill="#fab7a8"/><path d="M495.625,326.7c-3.021.941-5.942.2-8.666-.891-4.7-1.882-9.111-1.386-13.568.743-1.981.99-4.11,1.684-6.14,2.575a16.353,16.353,0,0,1-10.845.99c-3.763-1.981-5.843-5.2-7.032-9.111a38.981,38.981,0,0,1-.2-4.16,2.05,2.05,0,0,1,1.684-2.377c4.8,1.188,9.557,1.486,14.261-.545a2.535,2.535,0,0,1,1.684-.248c2.823.891,5.5-.347,8.22-.446,5-.149,9.953-.941,14.954-.891.545,0-.2-.545.149-.743,4.061,2.922,6.834,6.586,7.131,11.785A3.232,3.232,0,0,1,495.625,326.7Z" transform="translate(-352.209 -234.845)" fill="#784a20"/><path d="M407.627,599.076c-5.794-3.813-10.448-8.567-13.221-15a14.922,14.922,0,0,1-.545-7.081c1.288-5.447,5.4-7.527,10.3-8.666.792-.2,1.585-.347,2.426-.5,2.377-1.238,4.8-.693,7.23-.2,1.535.446,3.219.644,4.308,2.08a28.379,28.379,0,0,0-.347,14.261c.446,2.08.792,5.249-2.476,6.437-.5.149-.693.594-.743,1.188C414.312,594.223,410.6,598.284,407.627,599.076Z" transform="translate(-324.177 -363.813)" fill="#014391"/><path d="M581.58,528.77a41.285,41.285,0,0,0-7.428.4c-.891-.644-.743-1.585-.693-2.476.049-1.139.3-2.327.248-3.466a22.664,22.664,0,0,1,4.16-14.113,6.69,6.69,0,0,0,1.04-4.011,3.635,3.635,0,0,0-1.931-3.664c-.792-.792-1.981-1.337-1.931-2.773,1.238-.149,1.684,1.139,2.674,1.634,1.287-4.061,4.853-5.744,8.17-7.576,1.436-.792,2.823-1.486,3.615-3.021a33.226,33.226,0,0,1,4.952,9.458,4.719,4.719,0,0,0,.842,1.981,2.591,2.591,0,0,1,.3,3.466c.148,2.179-1.089,4.16-1.089,6.338a4.1,4.1,0,0,1-1.139,3.466c-2.179,3.516-3.763,7.428-6.982,10.25C584.848,526.046,583.214,527.383,581.58,528.77Z" transform="translate(-414.94 -324.753)" fill="#fbc838"/><path d="M413.192,529.016a46.692,46.692,0,0,0-7.428-.4c-1.981-1.634-3.912-3.219-5.893-4.853a5.3,5.3,0,0,1-2.624-3.516,61.874,61.874,0,0,1-4.308-9.607C390.958,505.148,392,500,394.424,495a3.982,3.982,0,0,1,1.585-3.417c.594-.693,1.238-1.387,1.832-2.08a2.359,2.359,0,0,0,.941,3.169c2.03,1.337,3.961,3.169,6.338,3.615,2.575.446,3.169,1.931,3.07,4.11-.049.545-.2.99.545,1.04.347,1.139-.5,2.179-.3,3.318a12.932,12.932,0,0,0,2.525,7.081,12.311,12.311,0,0,1,2.426,8.517c-.149,1.585.347,3.07.4,4.655C413.885,526.391,414.281,527.877,413.192,529.016Z" transform="translate(-323.305 -324.652)" fill="#fcc939"/><path d="M495.567,402.33c-2.624.5-5.2-.4-7.824-.446-4.209-.049-8.319.545-12.528.5.842-2.624,1.436-5.1-1.733-6.833a16.509,16.509,0,0,1-3.219-2.971,5.361,5.361,0,0,1-2.476-3.912c-.4-.99-1.139-1.832-1.089-2.971.347-1.387,1.535-1.089,2.327-.99,3.516.545,7.081.2,10.6.149,6.091-.1,12.132.5,18.223.5,1.238,0,2.476-.248,3.664-.2.842,0,2.179-.347,1.832,1.387-.446.842-.891,1.733-1.337,2.575.248,1.832-.792,2.971-2.179,3.862-1.387,1.238-2.773,2.525-4.209,3.714-.99.842-.644,1.981-.594,2.971C495.171,400.548,495.418,401.439,495.567,402.33Z" transform="translate(-361.064 -271.7)" fill="#f6a38d"/><path d="M533.7,396.773c.743-1.288,1.486-2.575,2.179-3.862q31.568,0,63.086-.049c1.684-.446,3.466.049,5.15-.446.941,0,1.931-.05,2.872-.05,3.961.2,7.923-.644,11.884.05,4.754,3.417,10.151,4.308,15.846,3.961-.594.644-1.386.446-2.08.446q-49.246,0-98.492-.049A.67.67,0,0,1,533.7,396.773Z" transform="translate(-394.889 -275.502)" fill="#c1e5fc"/><path d="M501.567,378.987c-.149-.941-.842-.99-1.486-.842-1.931.5-3.862.149-5.794.2-7.923.2-15.846-.891-23.719,0-1.832.2-3.714-1.337-5.645-.2-.5-.842-.941-1.733-1.436-2.575a1.718,1.718,0,0,1,0-2.426c-.842-2.525.4-3.664,3.12-3.466,4.655.4,9.359,1.238,14.063.248.149-.05.347-.2.446-.149,3.615,1.684,7.477-.5,11.142.693a4.177,4.177,0,0,0,2.674-.2,6.554,6.554,0,0,1,4.556,0,3.25,3.25,0,0,0,2.872-.049c1.288-.792,2.129-.4,2.773.842-.148.3-.3.644-.446.941a9.114,9.114,0,0,1-1.436,3.516C502.359,376.61,502.557,378.046,501.567,378.987Z" transform="translate(-359.191 -264.153)" fill="#f8ac9b"/><path d="M632.15,315.7a35.849,35.849,0,0,0-6.487,3.912c-.891-.891-2.03-.5-3.07-.5-23.026-.05-46,0-69.029,0-.743,0-1.486,0-2.228-.05-.99-.05-1.436-.693-1.436-1.684,0-.941.347-1.634,1.337-1.733a10.347,10.347,0,0,1,1.238-.05h78.932A3.819,3.819,0,0,0,632.15,315.7Z" transform="translate(-403.067 -236.865)" fill="#c0e7fd"/><path d="M430.283,452.5c-.2,2.377-.248,4.754-.545,7.081-.3,2.476-3.169,3.565-4.754,1.585-2.426-3.07-5.447-3.516-8.913-3.219-1.436.148-2.179-.5-2.08-1.981-.3-.446.1-.644.3-.941,1.634-1.981,3.318-4.011,4.952-5.992a6.809,6.809,0,0,1,3.268-3.862,40.783,40.783,0,0,0,5.893-6.487,2.482,2.482,0,0,1,2.327-2.08c1.139,1.386.693,3.021.545,4.457C430.778,444.87,431.075,448.732,430.283,452.5Z" transform="translate(-334.404 -297.948)" fill="#f8bd30"/><path d="M491.924,299.613c-.99-.5-2.327-.743-1.981-2.327.3-1.535,1.585-1.486,2.724-1.486h43.972c1.287,0,2.08.4,2.278,1.684.248,1.486-.842,1.832-1.931,2.03a16.276,16.276,0,0,1-2.674.248h-25.2c-.941,0-1.981-.3-2.872.4a1.609,1.609,0,0,1-1.634,0,16.69,16.69,0,0,0-11.29-.4A1.513,1.513,0,0,1,491.924,299.613Z" transform="translate(-372.772 -226.869)" fill="#bfe8fc"/><path d="M473.252,302.065c4.853-2.179,9.607-1.684,14.311.5a19.408,19.408,0,0,1,4.457,3.516c.248.4.446.842.693,1.287-3.664-.248-7.131,1.139-10.7.842s-6.883.545-10.3,1.287a2.812,2.812,0,0,1-1.387-.3,4.738,4.738,0,0,0-3.912.248c-4.061,1.684-8.319,1.337-12.528.545-.5-.1-.792-.594-.99-1.04.1-.446.446-.545.842-.594,1.436-.99,3.12-.347,4.655-.644,4.506,1.337,8.369.5,11.587-3.07A18.743,18.743,0,0,1,473.252,302.065Z" transform="translate(-354.1 -229.322)" fill="#89562a"/><path d="M372.79,158.8h17.827c1.188,0,2.426-.1,2.476,1.634.1,1.684-1.089,2.179-2.377,2.278-1.733.149-3.466.05-5.2.05H356.1a8.449,8.449,0,0,1-2.228-.149c-1.089-.248-1.981-.792-1.882-2.179.1-1.486,1.089-1.634,2.228-1.634Z" transform="translate(-303.156 -157.708)" fill="#c3ecfc"/><path d="M371.736,377.712H354.7c-1.139,0-2.426.3-2.624-1.436-.2-1.783.941-1.882,2.278-2.129a22.048,22.048,0,0,1,4.407-.347h28.671a13.862,13.862,0,0,1,2.476.148c1.04.2,2.278.545,2.129,1.931-.149,1.337-1.04,1.882-2.426,1.882-3.763-.049-7.576,0-11.34,0C375.994,377.712,373.865,377.712,371.736,377.712Z" transform="translate(-303.192 -266.245)" fill="#c1e6fc"/><path d="M336.619,457.609H321.07c-1.535,0-2.922-.2-2.971-2.08-.049-1.981,1.535-1.832,2.823-1.832h31.84c1.337,0,2.724.2,2.773,1.733.05,1.684-1.188,2.228-2.872,2.228C347.315,457.56,341.967,457.609,336.619,457.609Z" transform="translate(-286.05 -306.577)" fill="#c3e4fb"/><path d="M384.2,261.672c-1.634-3.07-.049-5.5,1.535-7.972-.05,1.882,1.337,1.486,2.426,1.486h33.326a11.2,11.2,0,0,1,2.228.1c.891.149,1.139.842,1.139,1.634,0,.842-.248,1.535-1.139,1.684a16.782,16.782,0,0,1-2.228.1c-11.34,0-22.729.1-34.069-.049C384.99,258.6,383.8,259.147,384.2,261.672Z" transform="translate(-319.071 -205.616)" fill="#c1e8fd"/><path d="M604.8,293.7c-.1,2.129.941.545,1.535.5.743.842,1.684.5,2.575.5,7.477.049,14.954,0,22.481,0,1.387,0,2.922-.05,3.07,1.684s-1.585,1.832-2.823,2.179a8.325,8.325,0,0,1-2.228.1h-25.9a13.236,13.236,0,0,1-1.981-.05,1.774,1.774,0,0,1-1.634-2.08,1.611,1.611,0,0,1,1.832-1.783C602.818,294.69,604.056,294.987,604.8,293.7Z" transform="translate(-428.305 -225.809)" fill="#c0e8fc"/><path d="M680.009,178.7H696.1c1.188,0,2.426-.1,2.476,1.634.1,1.832-1.188,1.882-2.476,1.882H663.47c-1.337,0-2.575-.049-2.476-1.882.049-1.684,1.337-1.634,2.476-1.634Z" transform="translate(-459.147 -167.754)" fill="#bfeafb"/><path d="M395.387,338.661h-13.37c-1.535,0-3.021-.2-2.922-2.08.049-1.733,1.486-1.882,2.922-1.882,8.913,0,17.827.05,26.74,0,1.585,0,2.724.5,2.823,2.03.1,1.783-1.387,1.931-2.773,1.931Z" transform="translate(-316.84 -246.507)" fill="#c1e7fd"/><path d="M427.329,295.7c4.358,0,8.715.049,13.073,0,1.535,0,3.021.2,3.021,2.03,0,1.733-1.684,1.882-2.971,1.882-3.219.1-6.437.05-9.656.05H415a9.995,9.995,0,0,1-1.733-.05c-1.139-.248-2.426-.545-2.278-2.08.149-1.387,1.188-1.832,2.476-1.832h13.865Z" transform="translate(-332.936 -226.819)" fill="#bfe8fc"/><path d="M476.484,280.136c-4.754,0-9.557-.049-14.311,0-1.535,0-2.773-.347-2.773-1.981,0-1.832,1.585-1.486,2.823-1.486h28.423c.891,0,1.882-.248,2.476.693a2.052,2.052,0,0,1,.1,1.931c-.4.941-1.287.891-2.129.891C486.239,280.136,481.386,280.136,476.484,280.136Z" transform="translate(-357.381 -217.197)" fill="#c0e9fb"/><path d="M424.723,230.936c-16.539,0-33.078-.05-49.617,0-5.249,0-9.656-.347-9.607-1.981.1-1.832,5.5-1.486,9.706-1.486H473.6c3.021,0,6.487-.248,8.567.693,1.337.594,1.238,1.287.347,1.931-1.337.941-4.407.891-7.329.891C458.346,230.936,441.56,230.936,424.723,230.936Z" transform="translate(-309.979 -192.36)" fill="#c0e9fb"/><path d="M544.1,377.689c.149-1.287.1-2.674,1.436-3.516,3.021-.891,5.992-.1,9.012,0,5.695.149,11.34.05,17.034.05,1.238,0,2.823-.1,2.872,1.535.1,1.832-1.436,1.981-2.971,1.981C562.323,377.639,553.211,377.689,544.1,377.689Z" transform="translate(-400.139 -266.222)" fill="#bee4fb"/><path d="M369.649,178.7h13.122c1.139,0,2.179,0,2.129,1.634-.049,1.387-.743,1.882-2.03,1.882h-26.2c-1.287,0-2.426-.4-2.377-1.882.049-1.535,1.287-1.634,2.525-1.634Z" transform="translate(-304.324 -167.755)" fill="#bfebfc"/><path d="M383.028,473.65c-.1.3-.2.644-.3.941-.792.842-1.585,1.684-2.377,2.575-8.567,0-17.133-.049-25.65-.049-1.04,0-2.327.3-2.575-1.238-.4-2.03.941-2.278,2.525-2.278C364.062,473.65,373.57,473.65,383.028,473.65Z" transform="translate(-303.193 -316.626)" fill="#bfe1fb"/><path d="M617.9,516.216c-.1-1.139-.2-2.327-.3-3.466,7.725,0,15.5-.049,23.224-.049,1.288,0,2.476.347,2.525,1.733a2.22,2.22,0,0,1-2.278,2.179c-7.477.049-15,0-22.481-.049A4.521,4.521,0,0,1,617.9,516.216Z" transform="translate(-437.243 -336.364)" fill="#c2e2fb"/><path d="M561.812,279.708c-3.516,0-7.081.05-10.6,0-1.337,0-3.12.347-3.219-1.733-.1-2.228,1.733-1.733,3.07-1.733,5.2-.05,10.349,0,15.549,0,2.377,0,4.655-.941,7.081-.1.941.347,2.08.347,1.931,1.733-.149,1.436-1.139,1.882-2.426,1.882C569.388,279.708,565.625,279.708,561.812,279.708Z" transform="translate(-402.104 -216.769)" fill="#c1e9fb"/><path d="M392.542,393.7H401.9c1.387,0,3.169,0,3.169,1.882,0,1.733-1.535,2.08-3.07,2.08H383.728a3.5,3.5,0,0,1-1.238-.1c-1.089-.4-2.724-.347-2.426-2.129.248-1.535,1.486-1.733,2.823-1.733Z" transform="translate(-317.313 -276.291)" fill="#c0e5fd"/><path d="M363.933,436.712h-9.607c-1.139,0-2.228-.1-2.228-1.585a2,2,0,0,1,2.228-2.327h20.253c1.337,0,2.278.693,2.228,2.08-.05,1.238-.941,1.832-2.179,1.832Z" transform="translate(-303.212 -296.029)" fill="#c1e4fb"/><path d="M387.789,281.652A22.982,22.982,0,0,1,386.7,276.8c8.567-.049,17.133-.049,25.7-.1.891,0,1.634.149,1.684,1.287.049,1.04-.3,1.832-1.337,2.03a11,11,0,0,1-2.228.149h-20.55C388.879,280.166,387.74,280.018,387.789,281.652Z" transform="translate(-320.681 -217.227)" fill="#bfe8fb"/><path d="M364.031,417.116h-9.607c-1.188,0-2.377,0-2.426-1.684-.05-1.832,1.238-1.832,2.525-1.832h19.461c1.238,0,2.773-.05,2.674,1.733-.1,1.535-1.386,1.783-2.773,1.783Z" transform="translate(-303.163 -286.337)" fill="#c0e4fc"/><path d="M463.789,158.787c2.872,0,5.744.05,8.616,0a1.892,1.892,0,0,1,2.228,1.733c.2,1.287-.743,1.684-1.783,1.931a8.7,8.7,0,0,1-1.931.3h-15.3c-1.486,0-2.674-.4-2.724-2.08-.1-2.03,1.387-1.832,2.724-1.832C458.392,158.738,461.066,158.787,463.789,158.787Z" transform="translate(-354.095 -157.697)" fill="#c1ecfc"/><path d="M362.4,354.7h8.171c1.287,0,2.476.3,2.525,1.733.05,1.288-1.04,1.684-2.228,1.832a73.721,73.721,0,0,1-17.48-.1c-1.139-.149-1.486-.842-1.486-1.882.05-1.139.743-1.585,1.783-1.585Z" transform="translate(-303.114 -256.603)" fill="#c0e5fc"/><path d="M431.539,316.115l-.347.347c-2.03,1.832-1.436,4.259-1.535,6.536-.99-3.862-.99-3.862-5.5-3.862H412.772c-1.287,0-2.823.248-2.773-1.783.05-2.08,1.634-1.684,2.922-1.684h18.767Q432.208,316.041,431.539,316.115Z" transform="translate(-332.442 -236.884)" fill="#c0e7fa"/><path d="M362.548,575.166H354.18c-1.238,0-2.08-.347-2.08-1.783,0-1.486.941-1.684,2.179-1.684h16.539c1.287,0,2.476.4,2.476,1.783-.049,1.386-1.238,1.733-2.525,1.733C367.946,575.117,365.222,575.166,362.548,575.166Z" transform="translate(-303.215 -366.148)" fill="#bee0fc"/><path d="M432.353,434.631c-.792.693-1.535,1.386-2.327,2.08-3.367,0-6.734-.049-10.052-.049-1.436,0-2.773-.248-2.773-1.981s1.337-1.981,2.773-1.981c4.506.05,9.012.05,13.518.05C433.1,433.393,432.7,433.987,432.353,434.631Z" transform="translate(-336.078 -295.979)" fill="#c4e4fc"/><path d="M456.943,392.8c.842,1.287,1.634,2.625,2.476,3.912-4.209.941-8.418.446-12.627.248a1.643,1.643,0,0,1-1.634-2.03,1.96,1.96,0,0,1,2.08-1.684h7.378C455.358,393.246,456.249,393.493,456.943,392.8Z" transform="translate(-350.17 -275.837)" fill="#c1e5fc"/><path d="M390.75,551.7a16.688,16.688,0,0,1,2.624,3.516c-4.11.891-8.27.347-12.429.3a1.743,1.743,0,0,1-1.882-2.08,2,2,0,0,1,2.327-1.684C384.511,551.7,387.63,551.7,390.75,551.7Z" transform="translate(-316.808 -356.052)" fill="#c1e0fa"/><path d="M270.079,436.642a31.648,31.648,0,0,0-9.408.891c.05-.347.842-.446.3-.891-.2-.149-.644,0-.941-.05-3.021-.1-4.259-2.03-3.268-5.051a1.049,1.049,0,0,1,1.04-.842h5.15c1.387,0,1.139,1.089,1.188,1.981.149,3.417.149,3.367,3.615,3.466C268.544,436.147,269.435,435.9,270.079,436.642Z" transform="translate(-254.915 -294.969)" fill="#c2e5fc"/><path d="M605.48,182.166h-4.7c-1.337,0-2.327-.5-2.377-1.931-.049-1.535,1.139-1.535,2.228-1.535h9.854c1.04,0,2.08.1,2.129,1.436a1.874,1.874,0,0,1-2.03,2.03C608.946,182.216,607.213,182.166,605.48,182.166Z" transform="translate(-427.549 -167.755)" fill="#bfeafd"/><path d="M258.346,390.7h4.011c1.634.743,2.773,4.457,1.783,5.893a1.41,1.41,0,0,1-1.337.5,16.727,16.727,0,0,1-2.228,0c-1.238-.2-3.169.842-3.565-1.089C256.712,394.216,256.167,392.037,258.346,390.7Z" transform="translate(-255.067 -274.776)" fill="#c2e5fc"/><path d="M628.908,496.574c-1.387,0-2.773.049-4.209,0a1.872,1.872,0,0,1-1.832-1.684,1.6,1.6,0,0,1,1.486-1.931,32.576,32.576,0,0,1,9.309,0,1.622,1.622,0,0,1,1.486,1.931,1.919,1.919,0,0,1-1.832,1.733C631.879,496.624,630.394,496.574,628.908,496.574Z" transform="translate(-439.886 -326.23)" fill="#c2e3fb"/><path d="M685.773,295.65c1.287,0,2.624-.049,3.912,0,.99.05,1.981.3,2.129,1.585a1.719,1.719,0,0,1-1.585,2.08,34.334,34.334,0,0,1-9.012.05c-1.089-.1-1.337-1.04-1.238-2.08a1.561,1.561,0,0,1,1.684-1.684C683,295.65,684.387,295.65,685.773,295.65Z" transform="translate(-468.724 -226.768)" fill="#c0e7fc"/><path d="M692.277,512.739c-.5,1.486-1.04,2.971-1.535,4.407-.248-1.188-1.089-.99-1.931-.792-2.129.545-4.258.248-6.388.2-1.337,0-2.674-.446-2.624-2.228.049-1.882,1.485-1.634,2.723-1.634C685.79,512.689,689.059,512.689,692.277,512.739Z" transform="translate(-468.642 -336.353)" fill="#bee2fb"/><path d="M260.82,534.482c-.842,0-1.634.05-2.476,0A1.149,1.149,0,0,1,257.156,533a4.811,4.811,0,0,0,.049-3.12c-.049-.149-.1-.4,0-.5,1.733-1.634,3.862-.5,5.843-.743,1.288-.2,1.436.743,1.387,1.733v.5C264.485,535.126,264.782,534.433,260.82,534.482Z" transform="translate(-255.263 -344.331)" fill="#c0e2fc"/><path d="M260.736,573.67c-3.07,0-4.209-1.337-3.813-4.457a1.4,1.4,0,0,1,1.387-1.436c1.585-.049,3.12,0,4.7,0,.941,0,1.337.5,1.288,1.386v.743C264.449,573.621,264.449,573.621,260.736,573.67Z" transform="translate(-255.129 -364.157)" fill="#c0e0fd"/><path d="M595.445,436.625c-1.139,0-2.278.049-3.466,0a1.883,1.883,0,0,1-1.981-2.03,1.821,1.821,0,0,1,1.931-1.832c2.476-.049,4.9-.049,7.378,0a1.932,1.932,0,1,1,.049,3.862C598.069,436.724,596.732,436.625,595.445,436.625Z" transform="translate(-423.308 -295.991)" fill="#c1e5fc"/><path d="M624.139,378.166c-1.386,0-2.773.05-4.209,0a1.9,1.9,0,0,1-2.03-2.03c0-1.387,1.089-1.436,2.129-1.436h7.626c1.287,0,2.476.4,2.426,1.783s-1.238,1.733-2.525,1.684C626.417,378.117,625.278,378.166,624.139,378.166Z" transform="translate(-437.395 -266.699)" fill="#c0e5fc"/><path d="M260.764,279.894c-3.664,0-3.912-.2-3.714-3.021.1-1.981.842-3.169,3.07-2.476a3.726,3.726,0,0,0,1.486.05c2.179-.3,2.823.5,2.971,2.773C264.725,280.587,262.646,279.943,260.764,279.894Z" transform="translate(-255.207 -215.964)" fill="#c1e9fd"/><path d="M261.316,548.553c1.486.2,3.763-.99,3.714,2.426-.05,2.525-.743,3.466-3.219,3.07a6.764,6.764,0,0,0-1.733,0c-1.535.149-2.179-.347-2.179-2.03C257.9,548.6,257.8,548.6,261.316,548.553Z" transform="translate(-255.661 -354.44)" fill="#c0dffd"/><path d="M261.316,417.093c-3.664,0-3.615,0-3.466-3.714.05-1.238.4-1.832,1.684-1.783q1.857.074,3.714,0c1.188-.05,1.535.5,1.585,1.634C265.129,417.044,265.079,417.093,261.316,417.093Z" transform="translate(-255.61 -285.324)" fill="#c0e4fc"/><path d="M390.052,493.152c-.1,1.337-.99,2.278-1.585,3.417-1.981,0-3.961-.05-5.942,0-1.288,0-2.377-.446-2.426-1.882-.049-1.535,1.04-2.179,2.426-2.08C385.05,492.855,387.625,491.964,390.052,493.152Z" transform="translate(-317.348 -326.175)" fill="#c2e3fa"/><path d="M258.02,508.5c3.813,2.377,8.022,2.724,12.33,2.575-.842.792-1.882.446-2.823.446-1.436,0-2.872-.2-2.674,2.03.049.693-.5.941-1.139.941h-.5C257.029,514.343,257.97,515.829,258.02,508.5Z" transform="translate(-255.681 -334.244)" fill="#bde1fb"/><path d="M265.256,298.471a36.7,36.7,0,0,0-7.378-.4c.1-1.436-.792-3.417.446-4.209,1.535-.941,3.664-.347,5.546-.248.891.049.842.842.891,1.486C264.81,296.243,264.562,297.432,265.256,298.471Z" transform="translate(-255.539 -225.629)" fill="#bfe7fd"/><path d="M266.9,237.867c.248,1.585.1,2.823-2.426,2.823-2.476,0-2.525-1.139-2.575-2.971-.05-2.08.347-3.12,2.823-3.12C267.343,234.549,266.9,236.134,266.9,237.867Z" transform="translate(-257.676 -195.973)" fill="#c2eafd"/><path d="M266.852,198.372c.149,1.783.4,3.318-2.327,3.219-2.377-.05-2.624-1.139-2.624-3.07,0-1.981.347-2.971,2.674-3.021C267.1,195.5,267.1,196.787,266.852,198.372Z" transform="translate(-257.68 -176.236)" fill="#c1ecfb"/><path d="M266.884,159.57c.2,1.783.248,3.169-2.327,3.07-2.476-.1-2.476-1.436-2.575-3.169-.149-2.08.594-2.823,2.773-2.872C267.28,156.549,267.032,157.985,266.884,159.57Z" transform="translate(-257.712 -156.597)" fill="#c2ebfc"/><path d="M485.964,253.7c1.089,1.436.693,3.664,2.377,4.8a42.455,42.455,0,0,1-8.319,0c-.743-.05-1.04-.792-.941-1.535a1.871,1.871,0,0,1,1.733-1.783,26.99,26.99,0,0,1,3.466-.05C485.37,255.285,486.014,254.888,485.964,253.7Z" transform="translate(-367.307 -205.617)" fill="#bfe7fc"/><path d="M422.049,453.755a15.233,15.233,0,0,1-3.268,3.862h-3.466c-1.238,0-2.129-.545-2.228-1.832-.149-1.436.99-1.931,2.03-2.03C417.444,453.656,419.722,453.755,422.049,453.755Z" transform="translate(-333.995 -306.585)" fill="#c2e4f7"/><path d="M455.518,375.315v2.426c-1.981,0-3.912-.05-5.893.05a1.97,1.97,0,0,1-2.327-1.931c-.05-1.387,1.04-1.684,2.228-1.585,1.535.2,3.021-.99,4.556-.049C454.578,374.572,455.023,374.969,455.518,375.315Z" transform="translate(-351.271 -266.275)" fill="#c1e5fb"/><path d="M266.794,257.52c.3,1.783-.149,2.971-2.179,2.922s-2.922-.891-2.823-3.12c.1-1.882.446-2.674,2.575-2.723C266.843,254.549,267.091,255.688,266.794,257.52Z" transform="translate(-257.622 -206.069)" fill="#c3e9fc"/><path d="M266.768,178.772c.347,2.228.1,3.318-2.228,3.268-2.377-.05-2.476-1.139-2.674-3.021-.347-3.268,2.08-2.575,3.615-2.724C267.709,176.2,266.521,178.178,266.768,178.772Z" transform="translate(-257.646 -166.54)" fill="#c0ebfc"/><path d="M266.892,218.321c.347,1.882-.049,2.872-2.327,2.823-2.08-.049-2.674-.693-2.575-2.674.05-1.882.149-3.021,2.575-2.971C266.793,215.548,267.238,216.439,266.892,218.321Z" transform="translate(-257.72 -186.331)" fill="#c2eafc"/><path d="M627.7,280.913c1.832-1.832,3.714-3.169,6.635-2.426,1.684.446,3.565.05,5.348.05C636.168,281.755,631.859,281.012,627.7,280.913Z" transform="translate(-442.342 -218.024)" fill="#bbe7fa"/><path d="M563.217,436.756c-.792-.693-1.585-1.337-2.377-2.03-.347-.644-.693-1.287-1.04-1.882.743,0,1.486-.05,2.179-.05,1.238-.049,2.327.2,2.724,1.535C565.049,435.518,564.207,436.211,563.217,436.756Z" transform="translate(-408.065 -296.023)" fill="#c4e6f6"/><path d="M453.5,315.353l.149-.446a5.915,5.915,0,0,1,5-.4C457.016,315.254,455.184,314.809,453.5,315.353Z" transform="translate(-354.403 -236.123)" fill="#784a20"/><path d="M421.9,601.858c2.476-1.486,3.862-4.16,6.289-5.695a.754.754,0,0,0,.3-1.04c-.644-1.634-.2-2.377,1.684-2.823.446-.1.99-.347.891-.644-.644-1.981,1.139-3.714.3-5.893-1.436-3.714-1.089-7.626-.149-11.488a3.224,3.224,0,0,1,1.089-1.535c1.188-.5,2.08.3,2.922.891a114.022,114.022,0,0,1,12.132,9.656c.693.594,1.931,1.287.891,2.624a2.71,2.71,0,0,0-1.089,3.466,16.948,16.948,0,0,1,.347,8.022,11.339,11.339,0,0,0,0,4.655c.891,3.615-.347,7.18.05,10.795a1.752,1.752,0,0,1-1.337,1.832c-1.882.3-3.268-.941-4.853-1.486-1.089-.4-1.882-.4-2.525.644-.594.2-.891-.1-1.04-.644.99-1.337.4-1.931-.891-2.575C431.655,608.048,426.505,605.473,421.9,601.858Z" transform="translate(-338.451 -366.595)" fill="#014ba0"/><path d="M551.872,572.549c.1,4.9,2.08,9.607,1.981,14.558-.1,3.763-1.188,7.428-.99,11.241a39.323,39.323,0,0,0,.545,4.853c.4,1.981,1.287,2.278,3.12,1.238.842-.5,1.585-1.684,2.773-.693-4.159,3.021-8.864,5.15-13.518,7.378a27.238,27.238,0,0,0-5.2-3.318c-.4-.3-.693-.693-1.089-.99-2.575-1.684-2.922-3.466-1.634-6.536a15.321,15.321,0,0,0-.1-10.4c-.693-2.08-.743-3.763.792-5.447a3.88,3.88,0,0,0,1.139-2.922,2.526,2.526,0,0,1,.842-1.733,42.4,42.4,0,0,1,10.6-7.378A1.989,1.989,0,0,1,551.872,572.549Z" transform="translate(-396.621 -366.502)" fill="#014ba0"/><path d="M511.027,633.553c1.931.693,4.06,1.089,4.8,3.417.149.644-.049,1.337.545,1.882a88.8,88.8,0,0,1-3.021,8.616,2.744,2.744,0,0,1-1.386,1.684,5.08,5.08,0,0,1-4.605.842c-4.556-1.188-9.26-1.783-13.717-3.417-2.426-1.585-4.655-.248-6.933.4a22.354,22.354,0,0,1-5.744,1.535.88.88,0,0,1-1.188-.545c-.594-2.03-1.832-3.912-1.981-6.091,2.624-.347,4.952.693,7.329,1.585,4.407,1.684,6.19.5,6.388-4.259.149-3.367-.644-6.685-.5-10.052a11.322,11.322,0,0,1,.347-3.169c.693-2.03,2.624-3.021,4.259-1.634C500.281,628.3,506.124,630.136,511.027,633.553Z" transform="translate(-366.67 -392.398)" fill="#0059c1"/><path d="M420.143,672.06c-7.23,4.754-16.935,4.556-23.323-.5-4.11-3.219-4.011-6.734.2-9.854a18.264,18.264,0,0,1,9.309-3.565c2.278-.2,4.605-.3,6.883-.446.743.446,1.634-.049,2.525.5a6.334,6.334,0,0,1-4.16,4.358c-1.337.4-2.624,1.04-2.426,2.624.2,1.684,1.733,2.08,3.169,2.179,2.228.1,4.06.743,5.15,2.773C418.063,671.219,419.647,670.822,420.143,672.06Z" transform="translate(-324.264 -409.563)" fill="#012f63"/><path d="M572.306,657.8c5.051.347,10.151.149,14.756,3.021,6.091,3.862,6.14,8.121-.049,11.934a18.22,18.22,0,0,1-15.351,1.981c-.2-.842-.941-.2-1.386-.545-.792-.594-2.476-.248-2.476-1.585a4.035,4.035,0,0,1,1.832-3.813,8.784,8.784,0,0,1,3.664-1.287c1.486-.149,2.872-.594,3.021-2.327.2-1.634-1.238-2.129-2.426-2.773-.644-.347-1.386-.545-2.03-.842-1.337-.545-2.377-1.535-2.129-2.971C570.028,657.3,571.563,658.345,572.306,657.8Z" transform="translate(-412.104 -409.613)" fill="#012f63"/><path d="M561.705,655.932c-.4.941-2.129-.2-2.03,1.089a2.284,2.284,0,0,0,2.228,2.228c.99.049,1.634.743,2.476,1.04,1.535.545,2.575,1.585,2.179,3.318a3.327,3.327,0,0,1-3.417,2.624,8.327,8.327,0,0,0-2.179.347,3.973,3.973,0,0,0-3.169,4.011c0,1.486,1.981,1.139,3.12,1.585.149.049.347.149.347.2a.611.611,0,0,1-.2.4,17.985,17.985,0,0,1-8.913-4.358,39.353,39.353,0,0,0-5.348-3.961c1.04-2.773,2.08-5.546,3.169-8.319.3-.743.248-1.684,1.238-2.03C554.723,654.793,558.189,655.338,561.705,655.932Z" transform="translate(-401.502 -407.745)" fill="#021e3e"/><path d="M434.825,670.344c-1.882.049-2.922-1.04-3.862-2.575-.941-1.486-2.624-1.436-4.209-1.436a4.245,4.245,0,0,1-3.664-2.129c-.545-.891.1-1.931.644-2.773a2.307,2.307,0,0,1,.693-.693c2.426-.545,4.556-1.535,5.3-4.259-.4-.3-1.337.248-1.832-.5,3.466-.545,6.933-1.089,10.448-1.684a10.881,10.881,0,0,0,.891.693c1.733,2.971,3.516,5.992,3.318,9.656C439.926,666.581,437.351,668.462,434.825,670.344Z" transform="translate(-338.947 -407.846)" fill="#011b39"/><path d="M459.114,663.459c-1.089-3.219-2.228-6.437-3.318-9.656-.05-1.684.347-2.525,2.278-1.535a50.206,50.206,0,0,0,4.754,1.931c1.337.644,3.318-.049,3.961,1.981.941,1.486,2.03,2.872,2.03,4.754a2.086,2.086,0,0,0,1.089,1.783c-2.426.594-4.9,1.188-7.329,1.733C461.243,664.8,460.253,663.756,459.114,663.459Z" transform="translate(-355.56 -406.607)" fill="#025cc8"/><path d="M495.8,669.255c2.278-1.089,4.506-2.575,6.933-.4C500.356,667.72,498.127,669.255,495.8,669.255Z" transform="translate(-375.757 -414.631)" fill="#0152b1"/><path d="M439.929,503.3c.3-.347.594-.644.891-.99a30.9,30.9,0,0,1,9.062-.1c6.19.594,12.33.3,18.52.4,6.487.1,12.974-.2,19.461-.446a5.756,5.756,0,0,1,2.426.3,1.771,1.771,0,0,1,1.04,2.773c-.2.347-.446.693-.693,1.04-.4.693-1.238,1.387-.446,2.179.99.891,1.486-.248,2.228-.693a50.706,50.706,0,0,1,9.062-4.7c1.733,1.188,1.535,3.219,2.179,4.853.248.99.2,2.08.347,3.07.248,1.634-.644,2.228-2.08,2.426-.5.049-.99.1-1.485.1H441.563c-1.585,0-3.516.347-3.763-2.129.1-1.287.3-2.624.5-3.912C438.84,506.022,438.741,504.437,439.929,503.3Z" transform="translate(-346.477 -330.924)" fill="#f5b429"/><path d="M504.268,497c-1.783,1.04-3.565,2.08-5.348,3.169-1.535.99-3.664.99-4.506,3.268-.446,1.139-1.585-.545-2.525-.644s-.644-.941-.347-1.535a7.542,7.542,0,0,1,1.535-2.179c1.436-1.387.644-2.129-.842-2.476a4.93,4.93,0,0,0-1.486-.05c-10.4.594-20.8.594-31.147.446a125.545,125.545,0,0,1-16.143-.941.856.856,0,0,0-.049-.5c-1.387-3.417.3-6.041,4.11-5.893,5.546.248,11.092-.347,16.638-.2,11.043.3,22.085,0,33.128.148,1.287,0,1.733.743,2.228,1.535.594.891.149,1.684-.446,2.426-.99,1.188-1.832,2.476-2.773,3.763-.248.347-.446.693-.149,1.089.446.545.941.2,1.337-.05,1.981-1.188,4.457-1.386,6.338-2.872C504.515,495.863,504.812,496.309,504.268,497Z" transform="translate(-349.066 -324.628)" fill="#f8bd30"/><path d="M431.918,511.892a7.492,7.492,0,0,1-.5,3.466,6.092,6.092,0,0,1-7.428,0c-.4-1.189.446-2.03.891-3.021.347-.347.594-.891,1.238-.693A6.627,6.627,0,0,1,431.918,511.892Z" transform="translate(-339.456 -335.556)" fill="#c1e2f9"/><path d="M434.194,506.672c-1.931-.049-3.862-.149-5.794-.2,1.436-2.179,3.763-3.466,5.6-5.249.842-.842,1.04-.644,1.238,1.436C434.788,504,434.986,505.484,434.194,506.672Z" transform="translate(-341.732 -330.336)" fill="#fbfbf2"/><path d="M566.4,502.781a1.4,1.4,0,0,0-.4-1.486c.743-.5,1.287-.644,2.03.248a10.568,10.568,0,0,0,3.318,2.773c.743.792,1.436,1.585,2.179,2.377-1.733,1.337-3.714.792-5.645.594C567.386,505.752,566.891,504.267,566.4,502.781Z" transform="translate(-411.195 -330.407)" fill="#fbfbf5"/><path d="M564.354,493.608c-.2-.05-1.337.347-1.089-.99.149-.941.644-1.981,1.931-1.832.842.1,2.03.248,2.03,1.337C567.127,493.36,566.087,493.806,564.354,493.608Z" transform="translate(-409.796 -325.294)" fill="#fbc738"/><path d="M424.024,518.766a13.525,13.525,0,0,0,7.428,0c-.4,2.228,1.188,1.882,2.476,1.882h52.44c2.872,0,5.794-.1,8.666.049,1.585.049,1.783-.693,1.585-1.931a8.391,8.391,0,0,1,7.527-.049c.347,3.615-1.684,6.388-3.466,9.21a7.209,7.209,0,0,0-1.387,4.308c.149,3.714-.842,7.329-.545,11.043-1.337.545-2.624,1.139-3.961,1.684a50.2,50.2,0,0,0-12.033,8.814,1.11,1.11,0,0,1-.4.941c-1.287.891-2.228,2.179-3.466,3.12a4.5,4.5,0,0,1-1.535.594c-8.913,0-17.876.3-26.789-.149a1.365,1.365,0,0,1-.693-.594c-5.1-4.7-10.151-9.458-16.391-12.677-1.337-.594-2.674-1.139-4.061-1.733-.2-4.16-.347-8.319-.594-12.479-.1-1.733-1.486-2.872-2.278-4.308C425.212,524.114,423.578,521.787,424.024,518.766Z" transform="translate(-339.485 -338.964)" fill="#f1f1f1"/><path d="M577.673,516.116c-2.525,0-5,0-7.527.05-.1-.99-.248-1.981-.347-2.971,1.783-1.139,3.763-.2,5.645-.594C576.832,513.293,577.97,514.284,577.673,516.116Z" transform="translate(-413.113 -336.314)" fill="#c1e2fa"/><path d="M501.1,594.611a5.834,5.834,0,0,1,.941-.545c1.486-.693,2.426-2.03,3.565-3.12.149-.1.248-.248.4-.347,1.387,1.783-.2,2.971-1.139,3.912-1.238,1.238-1.04,2.327-.644,3.763,1.337,4.506,1.882,9.062-.5,13.469-.594,1.089-.5,1.684.644,2.377a8.115,8.115,0,0,1,2.724,2.773c-5.3-2.228-10.6-4.407-14.955-8.27a2.5,2.5,0,0,0-2.872-.743c-1.337.594-1.337,1.783-1.436,2.872-.4,4.011.792,7.972.5,12.033a13.27,13.27,0,0,1-.1,1.981c-.743,3.318-3.021,4.506-6.091,3.12a67.94,67.94,0,0,0-8.171-2.575c-1.04-1.238-2.971-.693-3.961-1.981.842-.049,1.585-.5,1.387-1.337-.941-3.763.842-7.576-.3-11.439-.446-1.535,0-3.367.248-5.1a12.116,12.116,0,0,0-.545-6.982c-1.04-2.278.1-3.961,2.278-3.961h-.1c.347.594.99.248,1.486.446a3.831,3.831,0,0,1,1.387.941,103.962,103.962,0,0,0,10.052,7.923c1.188.891,2.129.743,3.318-.149,3.219-2.575,6.338-5.2,9.458-7.873a7.711,7.711,0,0,1,1.386-.792C500.305,594.76,500.8,594.958,501.1,594.611Z" transform="translate(-362.733 -375.689)" fill="#0152b1"/><path d="M504.076,598.549c-.3.2-.594.347-.941.545a8.221,8.221,0,0,1-3.615.644H480.753a7.18,7.18,0,0,1-3.367-.644c-.545-.149-1.188-.049-1.486-.693Z" transform="translate(-365.711 -379.627)" fill="#000d52"/><path d="M538.165,591.2c-.792,1.486-1.733,2.823-3.565,3.12A16.47,16.47,0,0,1,538.165,591.2Z" transform="translate(-395.344 -375.992)" fill="#014ba0"/><path d="M504.669,600.863c-3.417,2.823-6.784,5.645-10.2,8.468-.693.594-1.287,1.337-2.327.594-3.912-2.823-7.923-5.5-11.241-9.012.05-.941.743-.743,1.287-.743H503.48C503.926,600.17,504.669,599.922,504.669,600.863Z" transform="translate(-368.235 -380.506)" fill="#013775"/><path d="M503.659,600.641c-.5-.644-1.188-.5-1.832-.5H481.673c-.644,0-1.337-.1-1.832.5-.3-.3-.644-.594-.941-.941h25.749A1.56,1.56,0,0,1,503.659,600.641Z" transform="translate(-367.225 -380.283)" fill="#014ba0"/><path d="M376.484,202.736c-4.754,0-9.557-.05-14.311,0-1.535,0-2.773-.347-2.773-1.981,0-1.832,1.585-1.486,2.823-1.486h28.424c.891,0,1.882-.248,2.476.693a2.052,2.052,0,0,1,.1,1.931c-.4.941-1.288.891-2.129.891C386.189,202.687,381.337,202.687,376.484,202.736Z" transform="translate(-306.9 -178.124)" fill="#c0e9fb"/><path d="M529.084,182.236c-4.754,0-9.557-.05-14.311,0-1.535,0-2.773-.347-2.773-1.981,0-1.832,1.585-1.486,2.823-1.486h28.424c.891,0,1.882-.248,2.476.693a2.052,2.052,0,0,1,.1,1.931c-.4.941-1.287.891-2.129.891C538.839,182.236,533.986,182.236,529.084,182.236Z" transform="translate(-383.935 -167.776)" fill="#c0e9fb"/><path d="M442.284,182.136c-4.754,0-9.557-.049-14.311,0-1.535,0-2.773-.347-2.773-1.981,0-1.832,1.585-1.486,2.823-1.486h28.423c.891,0,1.882-.248,2.476.693a2.052,2.052,0,0,1,.1,1.931c-.4.941-1.287.891-2.129.891C451.989,182.136,447.137,182.136,442.284,182.136Z" transform="translate(-340.117 -167.725)" fill="#c0e9fb"/></g><g transform="translate(-140 2)"><ellipse cx="35" cy="33.5" rx="35" ry="33.5" transform="translate(1676 557)" fill="url(#a)"/><text transform="translate(1689 603)" font-size="36" font-family="Quicksand-Bold, Quicksand" font-weight="700"><tspan x="0" y="0">JS</tspan></text></g><g transform="translate(-275 -188)"><ellipse cx="21.5" cy="20.5" rx="21.5" ry="20.5" transform="translate(1676 557)" fill="url(#a)"/><text transform="translate(1684 586)" font-size="23" font-family="Quicksand-Bold, Quicksand" font-weight="700"><tspan x="0" y="0">UX</tspan></text></g><g transform="translate(-198 -180)"><ellipse cx="21.5" cy="20.5" rx="21.5" ry="20.5" transform="translate(1676 557)" fill="url(#a)"/><text transform="translate(1684 586)" font-size="23" font-family="Quicksand-Bold, Quicksand" font-weight="700"><tspan x="0" y="0">UI</tspan></text></g><g transform="translate(-140 -166)"><g transform="translate(1676 557)"><ellipse cx="33" cy="31.5" rx="33" ry="31.5" fill="url(#a)"/><text transform="translate(8 39)" font-size="19" font-family="Quicksand-Bold, Quicksand" font-weight="700"><tspan x="0" y="0">HTML</tspan></text></g></g><g transform="translate(-143 -72)"><ellipse cx="33" cy="31.5" rx="33" ry="31.5" transform="translate(1676 557)" fill="url(#a)"/><text transform="translate(1685 599)" font-size="27" font-family="Quicksand-Bold, Quicksand" font-weight="700"><tspan x="0" y="0">CSS</tspan></text></g><g transform="translate(-412 -72)"><ellipse cx="21.5" cy="20.5" rx="21.5" ry="20.5" transform="translate(1676 557)" fill="url(#a)"/><text transform="translate(1684 586)" font-size="23" font-family="Quicksand-Bold, Quicksand" font-weight="700"><tspan x="0" y="0">JS</tspan></text></g><g transform="translate(-419.059 -161.008)"><ellipse cx="33.5" cy="32" rx="33.5" ry="32" transform="translate(1676.059 557.008)" fill="url(#a)"/><text transform="translate(1690.059 597.008)" font-size="21" font-family="Quicksand-Bold, Quicksand" font-weight="700"><tspan x="0" y="0">Vue</tspan></text></g><g transform="translate(-402 -6)"><ellipse cx="21.5" cy="20.5" rx="21.5" ry="20.5" transform="translate(1676 557)" fill="url(#a)"/><text transform="translate(1684 586)" font-size="23" font-family="Quicksand-Bold, Quicksand" font-weight="700"><tspan x="0" y="0">JS</tspan></text></g></g></svg>