<svg id="Luigi-Logo-minimal" xmlns="http://www.w3.org/2000/svg" width="127.696" height="61.65" viewBox="0 0 127.696 61.65">
  <path id="Path_1507" data-name="Path 1507" d="M0,61.65V0H127.7V61.65ZM.748.365C.7,1.44.63,2.26.63,3.075c0,18.4.033,36.81-.057,55.215-.009,2.34.663,2.9,2.8,2.9q60.558-.09,121.121,0c2.121,0,2.817-.535,2.807-2.89-.09-18.4-.047-36.81-.057-55.215,0-.885-.085-1.77-.133-2.72H.748Z" fill="#fff"/>
  <path id="Path_1509" data-name="Path 1509" d="M95.01,61.585V16.71c6.59.375,13.185-.015,19.425,1.28,10.495,2.185,16.915,12.245,16.015,23.385-.895,11.025-8.785,19.315-19.64,20.135-5.19.395-10.43.07-15.8.07Zm2.17-1.945c3.95,0,7.755.05,11.555-.01,10.495-.165,17.77-6.635,19.18-17,1.47-10.79-3.99-20.495-13.55-22.58-5.5-1.2-11.325-.92-17.185-1.315Z" transform="translate(-48.996 -8.355)" fill="#fff"/>
  <path id="Path_1510" data-name="Path 1510" d="M15.836,60.1h19.19a6.9,6.9,0,0,1,1.985.055c.495.155.865.7,1.29,1.075-.4.3-.785.81-1.215.86a32.569,32.569,0,0,1-3.495.05H13.9c-.07-.975-.17-1.77-.175-2.565q-.015-19.74,0-39.485a5.361,5.361,0,0,1,.1-1.73,1.341,1.341,0,0,1,1-.75,1.3,1.3,0,0,1,.945.805,8.178,8.178,0,0,1,.075,1.985V60.1Z" transform="translate(-6.851 -8.805)" fill="#fff"/>
  <path id="Path_1511" data-name="Path 1511" d="M210.742,60.092h15.27c1.665,0,3.34-.1,4.995.045a7.526,7.526,0,0,1,2.17.935c-.69.355-1.37.995-2.065,1.01-4.58.09-9.165.05-13.75.05h-8.6c-.085-.965-.2-1.685-.2-2.41q-.015-19.875-.005-39.75a3.523,3.523,0,0,1,.08-1.48A1.885,1.885,0,0,1,209.8,17.6c.235-.05.79.5.875.865a8.777,8.777,0,0,1,.06,1.99V60.087Z" transform="translate(-112.378 -9.239)" fill="#fff"/>
  <path id="Path_1512" data-name="Path 1512" d="M181.41,62.845V15.05h.4V62.825C181.68,62.83,181.545,62.84,181.41,62.845Z" transform="translate(-92.809 -7.525)" fill="#fff"/>
  <path id="Path_1513" data-name="Path 1513" d="M79.53,15.3V62.8h-.32V15.3Z" transform="translate(-40.523 -7.65)" fill="#fff"/>
  <path id="Path_1514" data-name="Path 1514" d="M122.46,102.474Z" transform="translate(-62.697 -51.2)" fill="#fff"/>
</svg>
