<svg xmlns="http://www.w3.org/2000/svg" width="301.752" height="296" viewBox="0 0 301.752 296">
  <g id="Group_1108" data-name="Group 1108" transform="translate(14982.117 -6173)">
    <g id="Group_1104" data-name="Group 1104" transform="translate(-16261.5 5798.309)">
      <g id="Studente-informatico_Aggiornato_" data-name="Studente-informatico(Aggiornato)" transform="translate(1307.368 389.874)">
        <path id="Path_1365" data-name="Path 1365" d="M437.23,600.6a1.215,1.215,0,0,0,1.221,1.068c4.934.407,9.818,1.323,14.752,1.984,5.087.712,10.123,1.628,15.159,2.594a159.37,159.37,0,0,1,22.84,6.206c5.952,2.137,11.751,4.731,16.125,9.614a7.886,7.886,0,0,1,.051,9.919c-3.408,3.764-7.63,6.053-12.31,8.037a130.292,130.292,0,0,1-22.179,6.918,256.793,256.793,0,0,1-29.809,5.036c-10.123,1.068-20.246,2.086-30.42,2.7-15.464.916-30.928,1.017-46.393.763-6.969-.1-13.989-.407-20.958-.966-12.005-.916-23.959-2.187-35.863-3.917a214.609,214.609,0,0,1-33.472-7.325c-6.562-2.035-13.124-4.375-18.465-9-4.578-4.019-5.952-8.393-1.017-13.328,3.459-3.459,7.681-5.341,12.005-7.172,10.276-4.375,21.162-6.664,32.048-8.75,6.511-1.221,13.124-1.831,19.686-2.9,1.78-.305,3.713,0,5.29-1.119a1.773,1.773,0,0,1,1.272,1.119c2.849,5.952,7.529,10.225,12.768,13.938a105.969,105.969,0,0,0,14.7,8.5c2.391,1.221,2.543,2.086.865,3.968a49.584,49.584,0,0,1-10.174,1.78c-3.256.458-6.613.254-9.818.966a15.244,15.244,0,0,0-7.529,3.968c-2.645,2.594-2.594,5.189.2,7.63a17.534,17.534,0,0,0,13.429,4.273,22.422,22.422,0,0,0,10.123-3.1c2.086-1.17,3.663-3,5.646-4.324a7.869,7.869,0,0,1,2.645-1.424c3.713,1.068,7.274-.051,10.784-.916,2.137-.661,4.324-1.068,6.46-1.679,2.34-.407,4.578-1.323,6.969-.407,4.731,1.526,9.716,2.289,14.549,3.51,1.424.356,2.645-.356,3.968-.509,1.73,0,2.9,1.17,4.12,2.187,3.306,2.747,6.613,5.392,11.039,6.053a18.755,18.755,0,0,0,16.634-3.1c3.612-2.645,3.764-5.646.356-8.6a16.049,16.049,0,0,0-9.258-3.866c-2.543-.2-5.036-.509-7.579-.61a42.314,42.314,0,0,1-10.377-1.831,2.17,2.17,0,0,1-1.068-2.136c.2-1.221,1.272-1.424,2.187-1.831a98.845,98.845,0,0,0,11.6-6.409c4.731-3.1,9.258-6.359,12.666-10.988a34.462,34.462,0,0,0,2.95-4.68C436.06,601.668,436.111,600.651,437.23,600.6Z" transform="translate(-253.378 -374.74)" fill="#d9eefe"/>
        <path id="Path_1366" data-name="Path 1366" d="M486.278,419.239a43.357,43.357,0,0,1,12.666,2.95,17.545,17.545,0,0,1,4.985,3.357,2.543,2.543,0,0,1,1.373,2.493c-.407,4.934.661,9.767.305,14.7-.305,3.968-1.475,5.29-5.443,5.341a127.347,127.347,0,0,1-13.226-.1c-3.51-.305-6.969-.661-10.479.051a10.231,10.231,0,0,1-5.494-.56,5.532,5.532,0,0,0-3.51.1,15.3,15.3,0,0,1-8.292,0,5.386,5.386,0,0,0-3.459-.1c-2.594,1.068-4.985.1-7.376-.763a3.48,3.48,0,0,1-2.137-2.95c-.1-5.29,1.017-10.53.56-15.82a2.019,2.019,0,0,1,1.424-2.391c4.833-4.578,11.039-5.494,17.3-6.257a11.522,11.522,0,0,1,4.629-1.017,66.176,66.176,0,0,1,13.836.254A4.839,4.839,0,0,1,486.278,419.239Z" transform="translate(-348.107 -285.045)" fill="#fbc738"/>
        <path id="Path_1367" data-name="Path 1367" d="M425.155,452.978a7.325,7.325,0,0,0,8.546,3.052,5.268,5.268,0,0,1,4.12-.051,12.085,12.085,0,0,0,8.139,0,4.689,4.689,0,0,1,3.2-.305,13.11,13.11,0,0,0,9.818,0,3.735,3.735,0,0,1,2.238-.051c6.409,1.933,12.921.509,19.381.814,1.831.1,2.747-2.086,2.849-4.324.254-4.782-.763-9.513-.356-14.294a4.316,4.316,0,0,1,.458-1.119c1.119.305,2.187.763,2.442,2.086,4.171,4.883,8.444,9.665,12.565,14.6a66.347,66.347,0,0,1,7.427,10.225c.407,2.035-1.373,2.493-2.543,3.1-1.78.966-3.459,2.035-5.189,3.1a6.957,6.957,0,0,0-2.9,3.052c-.916,2.391-1.984,2.289-3.561.763a2.632,2.632,0,0,0-.661-.305,9.69,9.69,0,0,1-3.408-2.493,1.633,1.633,0,0,0-2.391-.407c-1.679,1.933-4.273,1.882-6.409,2.8-1.272.56-2.086-.56-1.475-1.933a30.834,30.834,0,0,1,2.442-3.866c1.068-1.679.56-2.645-1.424-3-.356-.051-.661-.051-1.017-.1-5.748-.254-11.5-.305-17.194-.407-4.782-.1-9.614.661-14.4.254-5.443-.458-10.784.305-16.176.1h-1.017c-4.019.153-5.29,1.628-4.68,5.494a2.04,2.04,0,0,1-1.119,1.526,1.735,1.735,0,0,0-2.543-.051,47.178,47.178,0,0,1-4.578,3.866,3.226,3.226,0,0,1-1.577.865c-1.323-.153-.865-1.221-.966-1.984a2.894,2.894,0,0,0-2.391-2.849c-2.594-.661-4.68-2.289-6.816-3.815-1.424-1.017-2.035-2.289-.763-3.866.458-1.73,2.086-2.8,2.7-4.426.509-1.323.712-2.9,2.747-2.543,1.017,1.323,2.493,1.373,3.917,1.221a6.953,6.953,0,0,1,6.511,2.543,2.975,2.975,0,0,0,3.306,1.323c1.526-.509,1.373-1.933,1.475-3.154C424.087,456.641,424.036,454.657,425.155,452.978Z" transform="translate(-326.662 -294.215)" fill="#f9bf31"/>
        <path id="Path_1368" data-name="Path 1368" d="M590.753,584.08c-3.307,8.088-9.513,13.429-16.736,17.855-1.119-.051-1.831.763-2.747,1.221-2.086,1.119-3.307.661-3.968-1.628a25.279,25.279,0,0,1-.407-10.326c.661-4.731,1.17-9.309-.407-14.04a15.221,15.221,0,0,1-.356-7.274c1.068-1.628,2.849-1.831,4.476-2.34,2.493-.509,4.985-1.068,7.427.2a50.028,50.028,0,0,1,5.6,1.424c6.1,2.238,8.648,6.969,7.325,13.328A14.8,14.8,0,0,1,590.753,584.08Z" transform="translate(-406.901 -358.22)" fill="#014493"/>
        <path id="Path_1369" data-name="Path 1369" d="M458.938,355.672c-.61-1.475-1.73-2.7-1.933-4.324-.356-2.9-.61-5.8,2.594-7.427a1.419,1.419,0,0,0,.763-1.221,1.267,1.267,0,0,1,1.323-.509c5.036.814,9.513-1.119,13.938-3,1.78-.763,3.612-1.526,5.443-2.187a11.44,11.44,0,0,1,7.478-.356A69.5,69.5,0,0,0,500.6,339.14c.712,2.187,1.17,4.273,3.154,6.053,2.289,2.035,1.73,6.308-.61,9.563-3.561.2-7.122-.61-10.733-.1a59.922,59.922,0,0,1-10.021.051c-5.036-.1-10.021.1-15.057-.254-1.17-.1-2.34-.051-3.51-.254-1.933-.356-3.154.254-3.154,2.442C459.5,357.351,459.243,356.486,458.938,355.672Z" transform="translate(-353.322 -244.827)" fill="#fab7a8"/>
        <path id="Path_1370" data-name="Path 1370" d="M496.893,327.115c-3.1.967-6.1.2-8.9-.916-4.833-1.933-9.36-1.424-13.938.763-2.035,1.017-4.222,1.73-6.308,2.645a16.8,16.8,0,0,1-11.14,1.017c-3.866-2.035-6-5.341-7.223-9.36a40.051,40.051,0,0,1-.2-4.273,2.106,2.106,0,0,1,1.73-2.442c4.934,1.221,9.818,1.526,14.65-.56a2.6,2.6,0,0,1,1.73-.254c2.9.916,5.646-.356,8.444-.458,5.138-.153,10.225-.967,15.362-.916.56,0-.2-.56.153-.763,4.171,3,7.02,6.766,7.325,12.107A3.32,3.32,0,0,1,496.893,327.115Z" transform="translate(-349.565 -232.752)" fill="#784a20"/>
        <path id="Path_1371" data-name="Path 1371" d="M408.009,599.949c-5.952-3.917-10.733-8.8-13.582-15.413a15.329,15.329,0,0,1-.56-7.274c1.323-5.6,5.545-7.732,10.581-8.9.814-.2,1.628-.356,2.493-.509,2.442-1.272,4.934-.712,7.427-.2,1.577.458,3.306.661,4.426,2.137a29.152,29.152,0,0,0-.356,14.65c.458,2.137.814,5.392-2.543,6.613-.509.153-.712.61-.763,1.221C414.876,594.964,411.061,599.135,408.009,599.949Z" transform="translate(-322.283 -358.269)" fill="#014391"/>
        <path id="Path_1372" data-name="Path 1372" d="M581.8,529.836a42.407,42.407,0,0,0-7.63.407c-.916-.661-.763-1.628-.712-2.543.051-1.17.305-2.391.254-3.561a23.282,23.282,0,0,1,4.273-14.5,6.872,6.872,0,0,0,1.068-4.12,3.734,3.734,0,0,0-1.984-3.764c-.814-.814-2.035-1.373-1.984-2.849,1.272-.153,1.73,1.17,2.747,1.679,1.323-4.171,4.985-5.9,8.393-7.783,1.475-.814,2.9-1.526,3.713-3.1a34.132,34.132,0,0,1,5.087,9.716,4.848,4.848,0,0,0,.865,2.035,2.662,2.662,0,0,1,.305,3.561c.153,2.238-1.119,4.273-1.119,6.511a4.208,4.208,0,0,1-1.17,3.561c-2.238,3.612-3.866,7.63-7.173,10.53C585.16,527.038,583.481,528.411,581.8,529.836Z" transform="translate(-410.617 -320.254)" fill="#fbc838"/>
        <path id="Path_1373" data-name="Path 1373" d="M413.772,530.094a47.966,47.966,0,0,0-7.63-.407c-2.035-1.679-4.019-3.306-6.053-4.985a5.444,5.444,0,0,1-2.7-3.612,63.56,63.56,0,0,1-4.426-9.869c-2.035-5.646-.966-10.937,1.526-16.075a4.091,4.091,0,0,1,1.628-3.51c.611-.712,1.272-1.424,1.882-2.137a2.423,2.423,0,0,0,.967,3.256c2.086,1.373,4.07,3.256,6.511,3.713,2.645.458,3.256,1.984,3.154,4.222-.051.56-.2,1.017.56,1.068.356,1.17-.509,2.238-.305,3.408a13.285,13.285,0,0,0,2.594,7.274,12.647,12.647,0,0,1,2.493,8.75c-.153,1.628.356,3.154.407,4.782C414.485,527.4,414.892,528.924,413.772,530.094Z" transform="translate(-321.434 -320.156)" fill="#fcc939"/>
        <path id="Path_1374" data-name="Path 1374" d="M496.354,402.814c-2.7.509-5.341-.407-8.037-.458-4.324-.051-8.546.56-12.87.509.865-2.7,1.475-5.239-1.78-7.02a16.959,16.959,0,0,1-3.306-3.052,5.507,5.507,0,0,1-2.543-4.019c-.407-1.017-1.17-1.882-1.119-3.052.356-1.424,1.577-1.119,2.391-1.017,3.612.56,7.274.2,10.886.153,6.257-.1,12.463.509,18.72.509,1.272,0,2.543-.254,3.764-.2.865,0,2.238-.356,1.882,1.424-.458.865-.916,1.78-1.373,2.645.254,1.882-.814,3.052-2.238,3.968-1.424,1.272-2.849,2.594-4.324,3.815-1.017.865-.661,2.035-.61,3.052C495.947,400.983,496.2,401.9,496.354,402.814Z" transform="translate(-358.183 -268.62)" fill="#f6a38d"/>
        <path id="Path_1375" data-name="Path 1375" d="M533.7,396.9c.763-1.323,1.526-2.645,2.238-3.968q32.429,0,64.807-.051c1.73-.458,3.561.051,5.29-.458.966,0,1.984-.051,2.95-.051,4.069.2,8.139-.661,12.209.051,4.883,3.51,10.428,4.426,16.278,4.069-.61.661-1.424.458-2.136.458q-50.589,0-101.178-.051A.688.688,0,0,1,533.7,396.9Z" transform="translate(-391.103 -272.32)" fill="#c1e5fc"/>
        <path id="Path_1376" data-name="Path 1376" d="M502.619,379.242c-.153-.966-.865-1.017-1.526-.865-1.984.509-3.968.153-5.952.2-8.139.2-16.278-.916-24.366,0-1.882.2-3.815-1.373-5.8-.2-.509-.865-.967-1.78-1.475-2.645a1.765,1.765,0,0,1,0-2.493c-.865-2.594.407-3.764,3.2-3.561,4.782.407,9.614,1.272,14.447.254.153-.051.356-.2.458-.153,3.713,1.73,7.681-.509,11.446.712a4.291,4.291,0,0,0,2.747-.2,6.733,6.733,0,0,1,4.68,0,3.339,3.339,0,0,0,2.95-.051c1.323-.814,2.187-.407,2.849.865-.153.305-.305.661-.458.967a9.363,9.363,0,0,1-1.475,3.612C503.433,376.8,503.637,378.275,502.619,379.242Z" transform="translate(-356.36 -261.275)" fill="#f8ac9b"/>
        <path id="Path_1377" data-name="Path 1377" d="M634.393,315.7a36.825,36.825,0,0,0-6.664,4.019c-.916-.916-2.086-.509-3.154-.509-23.654-.051-47.257,0-70.911,0-.763,0-1.526,0-2.289-.051-1.017-.051-1.475-.712-1.475-1.73,0-.967.356-1.679,1.373-1.78a10.626,10.626,0,0,1,1.272-.051H633.63A3.922,3.922,0,0,0,634.393,315.7Z" transform="translate(-399.062 -234.717)" fill="#c0e7fd"/>
        <path id="Path_1378" data-name="Path 1378" d="M430.73,452.929c-.2,2.442-.254,4.883-.56,7.274-.305,2.543-3.256,3.663-4.883,1.628-2.493-3.154-5.6-3.612-9.156-3.306-1.475.153-2.238-.509-2.136-2.035-.305-.458.1-.661.305-.966,1.679-2.035,3.408-4.12,5.087-6.155a7,7,0,0,1,3.357-3.968,41.9,41.9,0,0,0,6.053-6.664,2.549,2.549,0,0,1,2.391-2.137c1.17,1.424.712,3.1.56,4.578C431.239,445.1,431.544,449.063,430.73,452.929Z" transform="translate(-332.236 -294.165)" fill="#f8bd30"/>
        <path id="Path_1379" data-name="Path 1379" d="M491.979,299.717c-1.017-.509-2.391-.763-2.035-2.391.305-1.577,1.628-1.526,2.8-1.526h45.172c1.323,0,2.137.407,2.34,1.73.254,1.526-.865,1.882-1.984,2.086a16.719,16.719,0,0,1-2.747.254H509.631c-.967,0-2.035-.305-2.95.407a1.653,1.653,0,0,1-1.679,0,17.145,17.145,0,0,0-11.6-.407A1.554,1.554,0,0,1,491.979,299.717Z" transform="translate(-369.577 -224.989)" fill="#bfe8fc"/>
        <path id="Path_1380" data-name="Path 1380" d="M473.807,302.1c4.985-2.238,9.869-1.73,14.7.509a19.937,19.937,0,0,1,4.578,3.612c.254.407.458.865.712,1.323-3.764-.254-7.325,1.17-10.988.865s-7.071.56-10.581,1.323a2.888,2.888,0,0,1-1.424-.305,4.867,4.867,0,0,0-4.019.254c-4.171,1.73-8.546,1.374-12.87.56-.509-.1-.814-.61-1.017-1.068.1-.458.458-.56.865-.61,1.475-1.017,3.2-.356,4.782-.661,4.629,1.373,8.6.509,11.9-3.154A19.254,19.254,0,0,1,473.807,302.1Z" transform="translate(-351.405 -227.376)" fill="#89562a"/>
        <path id="Path_1381" data-name="Path 1381" d="M373.358,158.8H391.67c1.221,0,2.493-.1,2.543,1.679.1,1.73-1.119,2.238-2.442,2.34-1.78.153-3.561.051-5.341.051H356.215a8.679,8.679,0,0,1-2.289-.153c-1.119-.254-2.035-.814-1.933-2.238.1-1.526,1.119-1.679,2.289-1.679Z" transform="translate(-301.825 -157.679)" fill="#c3ecfc"/>
        <path id="Path_1382" data-name="Path 1382" d="M372.273,377.819h-17.5c-1.17,0-2.493.305-2.7-1.475-.2-1.831.967-1.933,2.34-2.187a22.65,22.65,0,0,1,4.527-.356H388.4a14.242,14.242,0,0,1,2.543.153c1.068.2,2.34.56,2.187,1.984-.153,1.374-1.068,1.933-2.493,1.933-3.866-.051-7.783,0-11.649,0C376.647,377.819,374.46,377.819,372.273,377.819Z" transform="translate(-301.859 -263.311)" fill="#c1e6fc"/>
        <path id="Path_1383" data-name="Path 1383" d="M337.124,457.716H321.151c-1.577,0-3-.2-3.052-2.137-.051-2.035,1.577-1.882,2.9-1.882h32.709c1.373,0,2.8.2,2.849,1.78.051,1.73-1.221,2.289-2.95,2.289C348.112,457.665,342.618,457.716,337.124,457.716Z" transform="translate(-285.176 -302.564)" fill="#c3e4fb"/>
        <path id="Path_1384" data-name="Path 1384" d="M384.217,261.89c-1.679-3.154-.051-5.646,1.577-8.19-.051,1.933,1.373,1.526,2.493,1.526h34.235a11.507,11.507,0,0,1,2.289.1c.916.153,1.17.865,1.17,1.679,0,.865-.254,1.577-1.17,1.73a17.242,17.242,0,0,1-2.289.1c-11.649,0-23.349.1-35-.051C385.031,258.736,383.81,259.3,384.217,261.89Z" transform="translate(-317.313 -204.305)" fill="#c1e8fd"/>
        <path id="Path_1385" data-name="Path 1385" d="M604.933,293.7c-.1,2.187.967.56,1.577.509.763.865,1.73.509,2.645.509,7.681.051,15.362,0,23.094,0,1.424,0,3-.051,3.154,1.73s-1.628,1.882-2.9,2.238a8.552,8.552,0,0,1-2.289.1h-26.6a13.6,13.6,0,0,1-2.035-.051A1.822,1.822,0,0,1,599.9,296.6a1.654,1.654,0,0,1,1.882-1.831C602.9,294.717,604.17,295.023,604.933,293.7Z" transform="translate(-423.625 -223.957)" fill="#c0e8fc"/>
        <path id="Path_1386" data-name="Path 1386" d="M680.528,178.7h16.532c1.221,0,2.493-.1,2.544,1.679.1,1.882-1.221,1.933-2.544,1.933H663.538c-1.373,0-2.645-.051-2.543-1.933.051-1.73,1.373-1.679,2.543-1.679Z" transform="translate(-453.641 -167.456)" fill="#bfeafb"/>
        <path id="Path_1387" data-name="Path 1387" d="M395.831,338.77H382.1c-1.577,0-3.1-.2-3-2.137.051-1.78,1.526-1.933,3-1.933,9.156,0,18.313.051,27.469,0,1.628,0,2.8.509,2.9,2.086.1,1.831-1.424,1.984-2.849,1.984Z" transform="translate(-315.142 -244.101)" fill="#c1e7fd"/>
        <path id="Path_1388" data-name="Path 1388" d="M427.775,295.7c4.476,0,8.953.051,13.429,0,1.577,0,3.1.2,3.1,2.086,0,1.78-1.73,1.933-3.052,1.933-3.306.1-6.613.051-9.919.051H415.109a10.266,10.266,0,0,1-1.78-.051c-1.17-.254-2.493-.56-2.34-2.136.153-1.424,1.221-1.882,2.543-1.882h14.243Z" transform="translate(-330.808 -224.94)" fill="#bfe8fc"/>
        <path id="Path_1389" data-name="Path 1389" d="M476.95,280.232c-4.883,0-9.818-.051-14.7,0-1.577,0-2.849-.356-2.849-2.035,0-1.882,1.628-1.526,2.9-1.526h29.2c.916,0,1.933-.254,2.543.712a2.108,2.108,0,0,1,.1,1.984c-.407.967-1.323.916-2.187.916C486.971,280.232,481.986,280.232,476.95,280.232Z" transform="translate(-354.599 -215.576)" fill="#c0e9fb"/>
        <path id="Path_1390" data-name="Path 1390" d="M426.339,231.032c-16.99,0-33.981-.051-50.971,0-5.392,0-9.919-.356-9.869-2.035.1-1.882,5.646-1.526,9.97-1.526H476.547c3.1,0,6.664-.254,8.8.712,1.373.61,1.272,1.323.356,1.984-1.373.966-4.527.916-7.529.916C460.879,231.032,443.634,231.032,426.339,231.032Z" transform="translate(-308.464 -191.403)" fill="#c0e9fb"/>
        <path id="Path_1391" data-name="Path 1391" d="M544.1,377.8c.153-1.323.1-2.747,1.475-3.612,3.1-.916,6.155-.1,9.258,0,5.85.153,11.649.051,17.5.051,1.272,0,2.9-.1,2.95,1.577.1,1.882-1.475,2.035-3.052,2.035C562.82,377.745,553.46,377.8,544.1,377.8Z" transform="translate(-396.213 -263.288)" fill="#bee4fb"/>
        <path id="Path_1392" data-name="Path 1392" d="M370.068,178.7h13.48c1.17,0,2.238,0,2.187,1.679-.051,1.424-.763,1.933-2.086,1.933H356.74c-1.323,0-2.493-.407-2.442-1.933.051-1.577,1.323-1.679,2.594-1.679Z" transform="translate(-302.961 -167.457)" fill="#bfebfc"/>
        <path id="Path_1393" data-name="Path 1393" d="M383.872,473.651c-.1.305-.2.661-.305.967-.814.865-1.628,1.73-2.442,2.645-8.8,0-17.6-.051-26.35-.051-1.068,0-2.391.305-2.645-1.272-.407-2.086.966-2.34,2.594-2.34C364.39,473.651,374.157,473.651,383.872,473.651Z" transform="translate(-301.861 -312.344)" fill="#bfe1fb"/>
        <path id="Path_1394" data-name="Path 1394" d="M617.905,516.312c-.1-1.17-.2-2.391-.305-3.561,7.936,0,15.922-.051,23.858-.051,1.323,0,2.543.356,2.594,1.78a2.281,2.281,0,0,1-2.34,2.238c-7.681.051-15.413,0-23.095-.051A4.646,4.646,0,0,1,617.905,516.312Z" transform="translate(-432.324 -331.554)" fill="#c2e2fb"/>
        <path id="Path_1395" data-name="Path 1395" d="M562.189,279.815c-3.612,0-7.274.051-10.886,0-1.373,0-3.2.356-3.306-1.78-.1-2.289,1.78-1.78,3.154-1.78,5.341-.051,10.632,0,15.973,0,2.442,0,4.782-.967,7.274-.1.966.356,2.137.356,1.984,1.78-.153,1.475-1.17,1.933-2.493,1.933C569.972,279.815,566.106,279.815,562.189,279.815Z" transform="translate(-398.125 -215.159)" fill="#c1e9fb"/>
        <path id="Path_1396" data-name="Path 1396" d="M392.884,393.7H402.5c1.424,0,3.256,0,3.256,1.933,0,1.78-1.577,2.137-3.154,2.137H383.829a3.594,3.594,0,0,1-1.272-.1c-1.119-.407-2.8-.356-2.493-2.187.254-1.577,1.526-1.78,2.9-1.78Z" transform="translate(-315.603 -273.088)" fill="#c0e5fd"/>
        <path id="Path_1397" data-name="Path 1397" d="M364.256,436.819h-9.869c-1.17,0-2.289-.1-2.289-1.628a2.056,2.056,0,0,1,2.289-2.391h20.805c1.373,0,2.34.712,2.289,2.137-.051,1.272-.966,1.882-2.238,1.882Z" transform="translate(-301.879 -292.298)" fill="#c1e4fb"/>
        <path id="Path_1398" data-name="Path 1398" d="M387.819,281.787A23.61,23.61,0,0,1,386.7,276.8c8.8-.051,17.6-.051,26.4-.1.916,0,1.679.153,1.73,1.323.051,1.068-.305,1.882-1.374,2.086a11.3,11.3,0,0,1-2.289.153H390.057C388.938,280.261,387.768,280.108,387.819,281.787Z" transform="translate(-318.881 -215.605)" fill="#bfe8fb"/>
        <path id="Path_1399" data-name="Path 1399" d="M364.36,417.212h-9.869c-1.221,0-2.442,0-2.493-1.73-.051-1.882,1.272-1.882,2.594-1.882h19.991c1.272,0,2.849-.051,2.747,1.78-.1,1.577-1.424,1.831-2.849,1.831Z" transform="translate(-301.831 -282.865)" fill="#c0e4fc"/>
        <path id="Path_1400" data-name="Path 1400" d="M464.086,158.788c2.95,0,5.9.051,8.851,0a1.944,1.944,0,0,1,2.289,1.78c.2,1.323-.763,1.73-1.831,1.984a8.931,8.931,0,0,1-1.984.305H455.693c-1.526,0-2.747-.407-2.8-2.137-.1-2.086,1.424-1.882,2.8-1.882C458.542,158.737,461.289,158.788,464.086,158.788Z" transform="translate(-351.401 -157.667)" fill="#c1ecfc"/>
        <path id="Path_1401" data-name="Path 1401" d="M362.684,354.7h8.393c1.323,0,2.543.305,2.594,1.78.051,1.323-1.068,1.73-2.289,1.882a75.731,75.731,0,0,1-17.957-.1c-1.17-.153-1.526-.865-1.526-1.933.051-1.17.763-1.628,1.831-1.628Z" transform="translate(-301.783 -253.927)" fill="#c0e5fc"/>
        <path id="Path_1402" data-name="Path 1402" d="M432.127,316.128l-.356.356c-2.086,1.882-1.475,4.375-1.577,6.715-1.017-3.968-1.017-3.968-5.646-3.968h-11.7c-1.323,0-2.9.254-2.849-1.831.051-2.137,1.679-1.73,3-1.73h19.279Q432.814,316.052,432.127,316.128Z" transform="translate(-330.327 -234.736)" fill="#c0e7fa"/>
        <path id="Path_1403" data-name="Path 1403" d="M362.833,575.261h-8.6c-1.272,0-2.137-.356-2.137-1.831,0-1.526.967-1.73,2.238-1.73h16.99c1.323,0,2.543.407,2.543,1.831-.051,1.424-1.272,1.78-2.594,1.78C368.378,575.21,365.58,575.261,362.833,575.261Z" transform="translate(-301.881 -360.541)" fill="#bee0fc"/>
        <path id="Path_1404" data-name="Path 1404" d="M432.766,434.684c-.814.712-1.577,1.424-2.391,2.136-3.459,0-6.918-.051-10.326-.051-1.475,0-2.849-.254-2.849-2.035s1.373-2.035,2.849-2.035c4.629.051,9.258.051,13.887.051C433.529,433.412,433.122,434.023,432.766,434.684Z" transform="translate(-333.866 -292.249)" fill="#c4e4fc"/>
        <path id="Path_1405" data-name="Path 1405" d="M457.265,392.8c.865,1.323,1.679,2.7,2.543,4.019-4.324.966-8.648.458-12.972.254a1.688,1.688,0,0,1-1.679-2.086,2.013,2.013,0,0,1,2.137-1.73h7.579C455.638,393.258,456.553,393.512,457.265,392.8Z" transform="translate(-347.581 -272.646)" fill="#c1e5fc"/>
        <path id="Path_1406" data-name="Path 1406" d="M391.07,551.7a17.143,17.143,0,0,1,2.7,3.612c-4.222.916-8.5.356-12.768.305a1.79,1.79,0,0,1-1.933-2.137,2.053,2.053,0,0,1,2.391-1.73C384.66,551.7,387.865,551.7,391.07,551.7Z" transform="translate(-315.111 -350.715)" fill="#c1e0fa"/>
        <path id="Path_1407" data-name="Path 1407" d="M270.451,436.8a32.51,32.51,0,0,0-9.665.916c.051-.356.865-.458.305-.916-.2-.153-.661,0-.967-.051-3.1-.1-4.375-2.086-3.357-5.189a1.078,1.078,0,0,1,1.068-.865h5.29c1.424,0,1.17,1.119,1.221,2.035.153,3.51.153,3.459,3.713,3.561C268.874,436.3,269.79,436.041,270.451,436.8Z" transform="translate(-254.874 -291.267)" fill="#c2e5fc"/>
        <path id="Path_1408" data-name="Path 1408" d="M605.673,182.261H600.84c-1.373,0-2.391-.509-2.442-1.984-.051-1.577,1.17-1.577,2.289-1.577h10.123c1.068,0,2.137.1,2.187,1.475a1.925,1.925,0,0,1-2.086,2.086C609.234,182.312,607.453,182.261,605.673,182.261Z" transform="translate(-422.889 -167.457)" fill="#bfeafd"/>
        <path id="Path_1409" data-name="Path 1409" d="M258.39,390.7h4.12c1.679.763,2.849,4.578,1.831,6.053a1.448,1.448,0,0,1-1.373.509,17.186,17.186,0,0,1-2.289,0c-1.272-.2-3.256.865-3.663-1.119C256.712,394.312,256.152,392.074,258.39,390.7Z" transform="translate(-255.022 -271.614)" fill="#c2e5fc"/>
        <path id="Path_1410" data-name="Path 1410" d="M629.074,496.682c-1.424,0-2.849.051-4.324,0a1.923,1.923,0,0,1-1.882-1.73,1.639,1.639,0,0,1,1.526-1.984,33.466,33.466,0,0,1,9.563,0,1.667,1.667,0,0,1,1.526,1.984,1.971,1.971,0,0,1-1.882,1.78C632.126,496.733,630.6,496.682,629.074,496.682Z" transform="translate(-434.896 -321.691)" fill="#c2e3fb"/>
        <path id="Path_1411" data-name="Path 1411" d="M685.932,295.651c1.323,0,2.7-.051,4.019,0,1.017.051,2.035.305,2.187,1.628a1.766,1.766,0,0,1-1.628,2.137,35.27,35.27,0,0,1-9.258.051c-1.119-.1-1.373-1.068-1.272-2.137a1.6,1.6,0,0,1,1.73-1.73C683.083,295.651,684.508,295.651,685.932,295.651Z" transform="translate(-462.962 -224.891)" fill="#c0e7fc"/>
        <path id="Path_1412" data-name="Path 1412" d="M692.618,512.74c-.509,1.526-1.068,3.052-1.577,4.527-.254-1.221-1.119-1.017-1.984-.814-2.187.56-4.375.254-6.562.2-1.373,0-2.747-.458-2.7-2.289.051-1.933,1.526-1.679,2.8-1.679C685.954,512.689,689.311,512.689,692.618,512.74Z" transform="translate(-462.882 -331.544)" fill="#bee2fb"/>
        <path id="Path_1413" data-name="Path 1413" d="M260.921,534.646c-.865,0-1.679.051-2.543,0a1.18,1.18,0,0,1-1.221-1.526,4.942,4.942,0,0,0,.051-3.2c-.051-.153-.1-.407,0-.509,1.78-1.679,3.968-.509,6-.763,1.323-.2,1.475.763,1.424,1.78v.509C264.686,535.307,264.991,534.595,260.921,534.646Z" transform="translate(-255.213 -339.308)" fill="#c0e2fc"/>
        <path id="Path_1414" data-name="Path 1414" d="M260.842,573.832c-3.154,0-4.324-1.374-3.917-4.578a1.434,1.434,0,0,1,1.424-1.475c1.628-.051,3.2,0,4.833,0,.967,0,1.373.509,1.323,1.424v.763C264.657,573.781,264.657,573.781,260.842,573.832Z" transform="translate(-255.082 -358.604)" fill="#c0e0fd"/>
        <path id="Path_1415" data-name="Path 1415" d="M595.593,436.731c-1.17,0-2.34.051-3.561,0A1.935,1.935,0,0,1,590,434.645a1.871,1.871,0,0,1,1.984-1.882c2.543-.051,5.036-.051,7.58,0a1.984,1.984,0,1,1,.051,3.968C598.289,436.833,596.916,436.731,595.593,436.731Z" transform="translate(-418.762 -292.262)" fill="#c1e5fc"/>
        <path id="Path_1416" data-name="Path 1416" d="M624.31,378.261c-1.424,0-2.849.051-4.324,0a1.95,1.95,0,0,1-2.086-2.086c0-1.424,1.119-1.475,2.187-1.475h7.834c1.323,0,2.544.407,2.493,1.831s-1.272,1.78-2.594,1.73C626.649,378.21,625.479,378.261,624.31,378.261Z" transform="translate(-432.471 -263.753)" fill="#c0e5fc"/>
        <path id="Path_1417" data-name="Path 1417" d="M260.867,280.049c-3.764,0-4.019-.2-3.815-3.1.1-2.035.865-3.256,3.154-2.543a3.828,3.828,0,0,0,1.526.051c2.238-.305,2.9.509,3.052,2.849C264.936,280.761,262.8,280.1,260.867,280.049Z" transform="translate(-255.158 -214.376)" fill="#c1e9fd"/>
        <path id="Path_1418" data-name="Path 1418" d="M261.41,548.554c1.526.2,3.866-1.017,3.815,2.493-.051,2.594-.763,3.561-3.306,3.154a6.95,6.95,0,0,0-1.78,0c-1.577.153-2.238-.356-2.238-2.086C257.9,548.605,257.8,548.605,261.41,548.554Z" transform="translate(-255.6 -349.146)" fill="#c0dffd"/>
        <path id="Path_1419" data-name="Path 1419" d="M261.412,417.243c-3.764,0-3.713,0-3.561-3.815.051-1.272.407-1.882,1.73-1.831q1.908.076,3.815,0c1.221-.051,1.577.509,1.628,1.679C265.329,417.193,265.278,417.243,261.412,417.243Z" transform="translate(-255.551 -281.88)" fill="#c0e4fc"/>
        <path id="Path_1420" data-name="Path 1420" d="M390.323,493.17c-.1,1.373-1.017,2.34-1.628,3.51-2.035,0-4.069-.051-6.1,0-1.323,0-2.442-.458-2.493-1.933-.051-1.577,1.068-2.238,2.493-2.137C385.185,492.864,387.831,491.949,390.323,493.17Z" transform="translate(-315.636 -321.638)" fill="#c2e3fa"/>
        <path id="Path_1421" data-name="Path 1421" d="M258.022,508.5c3.917,2.442,8.241,2.8,12.666,2.645-.865.814-1.933.458-2.9.458-1.475,0-2.95-.2-2.747,2.086.051.712-.509.966-1.17.966h-.509C257,514.5,257.971,516.029,258.022,508.5Z" transform="translate(-255.62 -329.491)" fill="#bde1fb"/>
        <path id="Path_1422" data-name="Path 1422" d="M265.463,298.611a37.7,37.7,0,0,0-7.579-.407c.1-1.475-.814-3.51.458-4.324,1.577-.966,3.764-.356,5.7-.254.916.051.865.865.916,1.526C265,296.322,264.751,297.543,265.463,298.611Z" transform="translate(-255.481 -223.782)" fill="#bfe7fd"/>
        <path id="Path_1423" data-name="Path 1423" d="M267.034,237.956c.254,1.628.1,2.9-2.493,2.9-2.543,0-2.594-1.17-2.645-3.052-.051-2.136.356-3.2,2.9-3.2C267.492,234.548,267.034,236.176,267.034,237.956Z" transform="translate(-257.561 -194.92)" fill="#c2eafd"/>
        <path id="Path_1424" data-name="Path 1424" d="M266.987,198.45c.153,1.831.407,3.408-2.391,3.306-2.442-.051-2.7-1.17-2.7-3.154,0-2.035.356-3.052,2.747-3.1C267.241,195.5,267.241,196.823,266.987,198.45Z" transform="translate(-257.565 -175.711)" fill="#c1ecfb"/>
        <path id="Path_1425" data-name="Path 1425" d="M267.018,159.651c.2,1.831.254,3.256-2.391,3.154-2.543-.1-2.543-1.475-2.645-3.256-.153-2.137.61-2.9,2.849-2.95C267.425,156.548,267.171,158.023,267.018,159.651Z" transform="translate(-257.596 -156.597)" fill="#c2ebfc"/>
        <path id="Path_1426" data-name="Path 1426" d="M486.152,253.7c1.119,1.475.712,3.764,2.442,4.934a43.61,43.61,0,0,1-8.546,0c-.763-.051-1.068-.814-.967-1.577a1.922,1.922,0,0,1,1.78-1.831,27.72,27.72,0,0,1,3.561-.051C485.542,255.328,486.2,254.921,486.152,253.7Z" transform="translate(-364.259 -204.305)" fill="#bfe7fc"/>
        <path id="Path_1427" data-name="Path 1427" d="M422.294,453.756a15.649,15.649,0,0,1-3.357,3.968h-3.561c-1.272,0-2.187-.56-2.289-1.882-.153-1.475,1.017-1.984,2.086-2.086C417.563,453.655,419.9,453.756,422.294,453.756Z" transform="translate(-331.838 -302.572)" fill="#c2e4f7"/>
        <path id="Path_1428" data-name="Path 1428" d="M455.743,375.355v2.493c-2.035,0-4.019-.051-6.053.051a2.024,2.024,0,0,1-2.391-1.984c-.051-1.424,1.068-1.73,2.289-1.628,1.577.2,3.1-1.017,4.68-.051C454.776,374.592,455.234,375,455.743,375.355Z" transform="translate(-348.652 -263.34)" fill="#c1e5fb"/>
        <path id="Path_1429" data-name="Path 1429" d="M266.93,257.6c.305,1.831-.153,3.052-2.238,3s-3-.916-2.9-3.2c.1-1.933.458-2.747,2.645-2.8C266.981,254.548,267.236,255.718,266.93,257.6Z" transform="translate(-257.509 -204.746)" fill="#c3e9fc"/>
        <path id="Path_1430" data-name="Path 1430" d="M266.9,178.84c.356,2.289.1,3.408-2.289,3.357-2.442-.051-2.543-1.17-2.747-3.1-.356-3.357,2.137-2.645,3.713-2.8C267.869,176.195,266.648,178.229,266.9,178.84Z" transform="translate(-257.532 -166.274)" fill="#c0ebfc"/>
        <path id="Path_1431" data-name="Path 1431" d="M267.026,218.4c.356,1.933-.051,2.95-2.391,2.9-2.137-.051-2.747-.712-2.645-2.747.051-1.933.153-3.1,2.645-3.052C266.924,215.549,267.382,216.465,267.026,218.4Z" transform="translate(-257.604 -185.535)" fill="#c2eafc"/>
        <path id="Path_1432" data-name="Path 1432" d="M627.7,280.985c1.882-1.882,3.815-3.256,6.816-2.493,1.73.458,3.663.051,5.494.051C636.4,281.85,631.973,281.087,627.7,280.985Z" transform="translate(-437.286 -216.38)" fill="#bbe7fa"/>
        <path id="Path_1433" data-name="Path 1433" d="M563.31,436.864c-.814-.712-1.628-1.373-2.442-2.086-.356-.661-.712-1.323-1.068-1.933.763,0,1.526-.051,2.238-.051,1.272-.051,2.391.2,2.8,1.577C565.192,435.592,564.327,436.3,563.31,436.864Z" transform="translate(-403.926 -292.293)" fill="#c4e6f6"/>
        <path id="Path_1434" data-name="Path 1434" d="M453.5,315.387l.153-.458a6.076,6.076,0,0,1,5.138-.407C457.112,315.285,455.23,314.827,453.5,315.387Z" transform="translate(-351.7 -233.995)" fill="#784a20"/>
        <path id="Path_1435" data-name="Path 1435" d="M421.9,602.657c2.543-1.526,3.968-4.273,6.46-5.85a.774.774,0,0,0,.305-1.068c-.661-1.679-.2-2.442,1.73-2.9.458-.1,1.017-.356.916-.661-.661-2.035,1.17-3.815.305-6.053-1.475-3.815-1.119-7.834-.153-11.8a3.312,3.312,0,0,1,1.119-1.577c1.221-.509,2.137.305,3,.916a117.134,117.134,0,0,1,12.463,9.919c.712.61,1.984,1.323.916,2.7a2.784,2.784,0,0,0-1.119,3.561,17.41,17.41,0,0,1,.356,8.241,11.648,11.648,0,0,0,0,4.782c.916,3.713-.356,7.376.051,11.089a1.8,1.8,0,0,1-1.373,1.882c-1.933.305-3.357-.967-4.985-1.526-1.119-.407-1.933-.407-2.594.661-.61.2-.916-.1-1.068-.661,1.017-1.373.407-1.984-.916-2.645C431.921,609.015,426.631,606.37,421.9,602.657Z" transform="translate(-336.175 -360.977)" fill="#014ba0"/>
        <path id="Path_1436" data-name="Path 1436" d="M552.274,572.553c.1,5.036,2.136,9.869,2.035,14.956-.1,3.866-1.221,7.63-1.017,11.547a40.389,40.389,0,0,0,.56,4.985c.407,2.035,1.323,2.34,3.2,1.272.865-.509,1.628-1.729,2.849-.712-4.273,3.1-9.105,5.29-13.887,7.579a27.984,27.984,0,0,0-5.341-3.408c-.407-.305-.712-.712-1.119-1.017-2.645-1.73-3-3.561-1.679-6.715a15.739,15.739,0,0,0-.1-10.683c-.712-2.136-.763-3.866.814-5.6a3.986,3.986,0,0,0,1.17-3,2.6,2.6,0,0,1,.865-1.78,43.559,43.559,0,0,1,10.886-7.58A2.042,2.042,0,0,1,552.274,572.553Z" transform="translate(-392.788 -360.885)" fill="#014ba0"/>
        <path id="Path_1437" data-name="Path 1437" d="M511.933,633.822c1.984.712,4.171,1.119,4.934,3.51.153.661-.051,1.374.56,1.933-.712,3.052-2.086,5.9-3.1,8.851a2.818,2.818,0,0,1-1.424,1.73,5.218,5.218,0,0,1-4.731.865c-4.68-1.221-9.513-1.831-14.091-3.51-2.493-1.628-4.782-.254-7.122.407a22.961,22.961,0,0,1-5.9,1.577.9.9,0,0,1-1.221-.56c-.61-2.086-1.882-4.019-2.035-6.257,2.7-.356,5.087.712,7.529,1.628,4.527,1.73,6.359.509,6.562-4.375.153-3.459-.661-6.867-.509-10.326a11.631,11.631,0,0,1,.356-3.256c.712-2.086,2.7-3.1,4.375-1.679C500.895,628.43,506.9,630.312,511.933,633.822Z" transform="translate(-363.639 -386.089)" fill="#0059c1"/>
        <path id="Path_1438" data-name="Path 1438" d="M420.861,672.452c-7.427,4.883-17.4,4.68-23.959-.509-4.222-3.306-4.12-6.918.2-10.123a18.762,18.762,0,0,1,9.563-3.663c2.34-.2,4.731-.305,7.071-.458.763.458,1.679-.051,2.594.509a6.507,6.507,0,0,1-4.273,4.476c-1.373.407-2.7,1.068-2.493,2.7.2,1.73,1.78,2.137,3.256,2.238,2.289.1,4.171.763,5.29,2.849C418.725,671.587,420.353,671.18,420.861,672.452Z" transform="translate(-322.368 -402.794)" fill="#012f63"/>
        <path id="Path_1439" data-name="Path 1439" d="M572.429,657.8c5.189.356,10.428.153,15.159,3.1,6.257,3.968,6.308,8.343-.051,12.26a18.718,18.718,0,0,1-15.769,2.035c-.2-.865-.966-.2-1.424-.56-.814-.61-2.544-.254-2.544-1.628a4.145,4.145,0,0,1,1.882-3.917,9.023,9.023,0,0,1,3.764-1.323c1.526-.153,2.95-.61,3.1-2.391.2-1.679-1.272-2.187-2.493-2.849-.661-.356-1.424-.56-2.086-.865-1.373-.56-2.442-1.577-2.187-3.052C570.089,657.291,571.666,658.36,572.429,657.8Z" transform="translate(-407.857 -402.843)" fill="#012f63"/>
        <path id="Path_1440" data-name="Path 1440" d="M562.112,655.982c-.407.967-2.187-.2-2.086,1.119a2.347,2.347,0,0,0,2.289,2.289c1.017.051,1.679.763,2.544,1.068,1.577.56,2.645,1.628,2.238,3.408a3.418,3.418,0,0,1-3.51,2.7,8.556,8.556,0,0,0-2.238.356,4.081,4.081,0,0,0-3.256,4.12c0,1.526,2.035,1.17,3.2,1.628.153.051.356.153.356.2a.628.628,0,0,1-.2.407,18.476,18.476,0,0,1-9.156-4.477,40.425,40.425,0,0,0-5.494-4.07c1.068-2.849,2.137-5.7,3.256-8.546.305-.763.254-1.73,1.272-2.086C554.939,654.812,558.5,655.372,562.112,655.982Z" transform="translate(-397.539 -401.025)" fill="#021e3e"/>
        <path id="Path_1441" data-name="Path 1441" d="M435.151,670.782c-1.933.051-3-1.068-3.968-2.645-.967-1.526-2.7-1.475-4.324-1.475a4.361,4.361,0,0,1-3.764-2.187c-.56-.916.1-1.984.661-2.849a2.37,2.37,0,0,1,.712-.712c2.493-.56,4.68-1.577,5.443-4.375-.407-.305-1.373.254-1.882-.509,3.561-.56,7.122-1.119,10.733-1.73a11.18,11.18,0,0,0,.916.712c1.78,3.052,3.612,6.155,3.408,9.919C440.39,666.915,437.745,668.849,435.151,670.782Z" transform="translate(-336.657 -401.124)" fill="#011b39"/>
        <path id="Path_1442" data-name="Path 1442" d="M459.2,663.776c-1.119-3.306-2.289-6.613-3.408-9.919-.051-1.73.356-2.594,2.34-1.577a51.583,51.583,0,0,0,4.883,1.984c1.373.661,3.408-.051,4.07,2.035.967,1.526,2.086,2.95,2.086,4.883a2.143,2.143,0,0,0,1.119,1.831c-2.493.61-5.036,1.221-7.529,1.78C461.392,665.15,460.374,664.081,459.2,663.776Z" transform="translate(-352.826 -399.917)" fill="#025cc8"/>
        <path id="Path_1443" data-name="Path 1443" d="M495.8,669.3c2.34-1.119,4.629-2.645,7.122-.407C500.48,667.719,498.191,669.3,495.8,669.3Z" transform="translate(-372.482 -407.727)" fill="#0152b1"/>
        <path id="Path_1444" data-name="Path 1444" d="M439.987,503.336c.305-.356.61-.661.916-1.017a31.745,31.745,0,0,1,9.309-.1c6.359.61,12.666.305,19.025.407,6.664.1,13.328-.2,19.992-.458a5.913,5.913,0,0,1,2.493.305c1.323.56,1.78,1.475,1.068,2.849-.2.356-.458.712-.712,1.068-.407.712-1.272,1.424-.458,2.238,1.017.916,1.526-.254,2.289-.712a52.088,52.088,0,0,1,9.309-4.833c1.78,1.221,1.577,3.306,2.238,4.985.254,1.017.2,2.137.356,3.154.254,1.679-.661,2.289-2.137,2.493-.509.051-1.017.1-1.526.1H441.666c-1.628,0-3.612.356-3.866-2.187.1-1.323.305-2.7.509-4.019C438.868,506.133,438.767,504.506,439.987,503.336Z" transform="translate(-343.986 -326.259)" fill="#f5b429"/>
        <path id="Path_1445" data-name="Path 1445" d="M505.941,497.208c-1.831,1.068-3.663,2.136-5.494,3.256-1.577,1.017-3.764,1.017-4.629,3.357-.458,1.17-1.628-.56-2.594-.661s-.661-.967-.356-1.577a7.747,7.747,0,0,1,1.577-2.238c1.475-1.424.661-2.187-.865-2.543a5.064,5.064,0,0,0-1.526-.051c-10.683.61-21.365.61-32,.458a128.973,128.973,0,0,1-16.583-.966.879.879,0,0,0-.051-.509c-1.424-3.51.305-6.206,4.222-6.053,5.7.254,11.395-.356,17.092-.2,11.344.305,22.688,0,34.031.153,1.323,0,1.78.763,2.289,1.577.61.916.153,1.73-.458,2.493-1.017,1.221-1.882,2.543-2.849,3.866-.254.356-.458.712-.153,1.119.458.56.967.2,1.373-.051,2.035-1.221,4.578-1.424,6.511-2.95C506.2,496.038,506.5,496.5,505.941,497.208Z" transform="translate(-346.506 -320.132)" fill="#f8bd30"/>
        <path id="Path_1446" data-name="Path 1446" d="M432.137,511.914a7.7,7.7,0,0,1-.509,3.561,6.258,6.258,0,0,1-7.63,0c-.407-1.221.458-2.086.916-3.1.356-.356.61-.916,1.272-.712C428.169,511,430.153,510.744,432.137,511.914Z" transform="translate(-337.153 -330.768)" fill="#c1e2f9"/>
        <path id="Path_1447" data-name="Path 1447" d="M434.352,506.834c-1.984-.051-3.968-.153-5.952-.2,1.475-2.238,3.866-3.561,5.748-5.392.865-.865,1.068-.661,1.272,1.475C434.962,504.087,435.166,505.613,434.352,506.834Z" transform="translate(-339.368 -325.688)" fill="#fbfbf2"/>
        <path id="Path_1448" data-name="Path 1448" d="M566.407,502.832a1.439,1.439,0,0,0-.407-1.526c.763-.509,1.323-.661,2.086.254a10.858,10.858,0,0,0,3.408,2.849c.763.814,1.475,1.628,2.238,2.442-1.78,1.373-3.815.814-5.8.61C567.424,505.885,566.916,504.358,566.407,502.832Z" transform="translate(-406.972 -325.756)" fill="#fbfbf5"/>
        <path id="Path_1449" data-name="Path 1449" d="M564.384,493.685c-.2-.051-1.373.356-1.119-1.017.153-.967.661-2.035,1.984-1.882.865.1,2.086.254,2.086,1.373C567.233,493.431,566.165,493.889,564.384,493.685Z" transform="translate(-405.611 -320.78)" fill="#fbc738"/>
        <path id="Path_1450" data-name="Path 1450" d="M424.026,518.791a13.894,13.894,0,0,0,7.63,0c-.407,2.289,1.221,1.933,2.543,1.933h53.87c2.95,0,5.952-.1,8.9.051,1.628.051,1.831-.712,1.628-1.984a8.62,8.62,0,0,1,7.732-.051c.356,3.713-1.73,6.562-3.561,9.462a7.406,7.406,0,0,0-1.424,4.426c.153,3.815-.865,7.529-.56,11.344-1.373.56-2.7,1.17-4.069,1.73a51.571,51.571,0,0,0-12.361,9.055,1.14,1.14,0,0,1-.407.966c-1.323.916-2.289,2.238-3.561,3.2a4.619,4.619,0,0,1-1.577.61c-9.156,0-18.364.305-27.52-.153a1.4,1.4,0,0,1-.712-.61c-5.24-4.833-10.428-9.716-16.838-13.022-1.373-.61-2.747-1.17-4.171-1.78-.2-4.273-.356-8.546-.61-12.819-.1-1.78-1.526-2.95-2.34-4.426C425.247,524.285,423.568,521.894,424.026,518.791Z" transform="translate(-337.181 -334.084)" fill="#f1f1f1"/>
        <path id="Path_1451" data-name="Path 1451" d="M577.888,516.212c-2.594,0-5.138,0-7.732.051-.1-1.017-.254-2.035-.356-3.052,1.831-1.17,3.866-.2,5.8-.61C577.023,513.312,578.193,514.33,577.888,516.212Z" transform="translate(-408.839 -331.505)" fill="#c1e2fa"/>
        <path id="Path_1452" data-name="Path 1452" d="M501.946,594.72a5.987,5.987,0,0,1,.967-.56c1.526-.712,2.492-2.086,3.663-3.2.153-.1.254-.254.407-.356,1.424,1.831-.2,3.052-1.17,4.019-1.272,1.272-1.068,2.391-.661,3.866,1.373,4.629,1.933,9.309-.509,13.836-.61,1.119-.509,1.729.661,2.442a8.335,8.335,0,0,1,2.8,2.849c-5.443-2.289-10.886-4.527-15.362-8.5a2.572,2.572,0,0,0-2.95-.763c-1.373.61-1.373,1.831-1.475,2.95-.407,4.12.814,8.19.509,12.361a13.634,13.634,0,0,1-.1,2.035c-.763,3.408-3.1,4.629-6.257,3.2a69.793,69.793,0,0,0-8.393-2.645c-1.068-1.272-3.052-.712-4.07-2.035.865-.051,1.628-.509,1.424-1.373-.967-3.866.865-7.783-.305-11.751-.458-1.577,0-3.459.254-5.24a12.446,12.446,0,0,0-.56-7.173c-1.068-2.34.1-4.07,2.34-4.07h-.1c.356.61,1.017.254,1.526.458a3.935,3.935,0,0,1,1.424.967,106.8,106.8,0,0,0,10.326,8.139c1.221.916,2.187.763,3.408-.153,3.306-2.645,6.511-5.341,9.716-8.088a7.917,7.917,0,0,1,1.424-.814C501.132,594.873,501.641,595.076,501.946,594.72Z" transform="translate(-359.807 -369.827)" fill="#0152b1"/>
        <path id="Path_1453" data-name="Path 1453" d="M504.844,598.553c-.305.2-.61.356-.966.56a8.446,8.446,0,0,1-3.713.661H480.885a7.376,7.376,0,0,1-3.459-.661c-.56-.153-1.221-.051-1.526-.712Z" transform="translate(-362.705 -373.659)" fill="#000d52"/>
        <path id="Path_1454" data-name="Path 1454" d="M538.263,591.2c-.814,1.526-1.78,2.9-3.663,3.2A16.92,16.92,0,0,1,538.263,591.2Z" transform="translate(-391.545 -370.122)" fill="#014ba0"/>
        <path id="Path_1455" data-name="Path 1455" d="M505.317,600.883c-3.51,2.9-6.969,5.8-10.479,8.7-.712.61-1.323,1.373-2.391.61-4.019-2.9-8.139-5.646-11.547-9.258.051-.966.763-.763,1.323-.763H504.1C504.554,600.171,505.317,599.917,505.317,600.883Z" transform="translate(-365.162 -374.515)" fill="#013775"/>
        <path id="Path_1456" data-name="Path 1456" d="M504.335,600.666c-.509-.661-1.221-.509-1.882-.509h-20.7c-.661,0-1.374-.1-1.882.509-.305-.305-.661-.61-.966-.966h26.452A1.6,1.6,0,0,1,504.335,600.666Z" transform="translate(-364.179 -374.298)" fill="#014ba0"/>
        <path id="Path_1457" data-name="Path 1457" d="M376.95,202.832c-4.883,0-9.818-.051-14.7,0-1.577,0-2.849-.356-2.849-2.035,0-1.882,1.628-1.526,2.9-1.526h29.2c.916,0,1.933-.254,2.543.712a2.108,2.108,0,0,1,.1,1.984c-.407.967-1.323.916-2.187.916C386.92,202.781,381.935,202.781,376.95,202.832Z" transform="translate(-305.468 -177.548)" fill="#c0e9fb"/>
        <path id="Path_1458" data-name="Path 1458" d="M529.55,182.332c-4.883,0-9.818-.051-14.7,0-1.577,0-2.849-.356-2.849-2.035,0-1.882,1.628-1.526,2.9-1.526h29.2c.916,0,1.933-.254,2.544.712a2.108,2.108,0,0,1,.1,1.984c-.407.967-1.323.916-2.187.916C539.571,182.332,534.586,182.332,529.55,182.332Z" transform="translate(-380.442 -167.477)" fill="#c0e9fb"/>
        <path id="Path_1459" data-name="Path 1459" d="M442.75,182.232c-4.883,0-9.818-.051-14.7,0-1.577,0-2.849-.356-2.849-2.035,0-1.882,1.628-1.526,2.9-1.526h29.2c.916,0,1.933-.254,2.543.712a2.108,2.108,0,0,1,.1,1.984c-.407.966-1.323.916-2.187.916C452.72,182.232,447.735,182.232,442.75,182.232Z" transform="translate(-337.796 -167.427)" fill="#c0e9fb"/>
      </g>
    </g>
    <g id="HTML5" transform="translate(-15056.717 6328.592)">
      <path id="Path_1487" data-name="Path 1487" d="M108.4,0h3.473V3.517h3.2V0h3.473V10.645h-3.473V7.1H111.9v3.548h-3.5m14.737-7.1h-3.065V0h9.618V3.548h-3.08v7.1h-3.473M131.215,0h3.639l2.235,3.749L139.324,0h3.639V10.645H139.49V5.369l-2.431,3.826-2.431-3.826v5.276h-3.412M144.684,0h3.473V7.127h4.922v3.517h-8.4" transform="translate(-28.586)"/>
      <path id="Path_1488" data-name="Path 1488" d="M79.6,154.152l-5-53.552h55l-5,53.523-22.543,5.957" transform="translate(0 -85.08)" fill="#e44d26"/>
      <path id="Path_1489" data-name="Path 1489" d="M256,184.919V131h22.879l-4.366,48.75" transform="translate(-154.385 -114.778)" fill="#f16529"/>
      <path id="Path_1490" data-name="Path 1490" d="M142,176.3h17.587v7h-9.9l.648,7.174h9.256v6.989H143.913m.309,3.517h7.035l.494,5.6,7.837,2.1v7.313l-14.378-4.011" transform="translate(-57.265 -151.862)" fill="#ebebeb"/>
      <path id="Path_1491" data-name="Path 1491" d="M273.356,176.3H255.8v7h16.908m-.632,7.174H255.8v7h8.639l-.818,9.1-7.822,2.1v7.282l14.347-3.98" transform="translate(-153.952 -151.86)" fill="#fff"/>
    </g>
    <g id="css-logo" transform="translate(-14934.563 6173)">
      <path id="Path_1492" data-name="Path 1492" d="M27.911,132.642,5.45,126.457.445,70.766h55l-5.011,55.682Z" transform="translate(0 -57.642)" fill="#264de4"/>
      <path id="Path_1493" data-name="Path 1493" d="M143.655,133.318l3.683-41.261H128v45.6Z" transform="translate(-96.21 -66.764)" fill="#2965f1"/>
      <path id="Path_1494" data-name="Path 1494" d="M48.984,135.983l.531,5.923H62.769v-5.923Zm-1.067-11.988.538,5.923H62.769V124H47.917Zm14.852,27.37-.026.007-6.6-1.781-.422-4.724H49.779l.83,9.3,12.132,3.368.027-.007Z" transform="translate(-36.583 -95.313)" fill="#ebebeb"/>
      <path id="Path_1495" data-name="Path 1495" d="M60.484,0h9.435V3H64.43V6h5.49V9H60.484ZM71.806,0h9.435V2.609H75.752V3.13h5.489v6H71.806V6.391H77.3V5.869h-5.49V0ZM83.128,0h9.435V2.609H87.074V3.13h5.489v6H83.128V6.391h5.489V5.869H83.128V0Z" transform="translate(-48.905)"/>
      <path id="Path_1496" data-name="Path 1496" d="M141.657,135.983l1.069-11.988H127.889v5.923h8.346l-.539,6.065h-7.807v5.923h7.293l-.688,7.681-6.606,1.783v6.162l12.142-3.365.089-1,1.392-15.593Z" transform="translate(-98.213 -95.313)" fill="#fff"/>
    </g>
    <g id="logo-javascript" transform="translate(-14484.068 6220.956)">
      <g id="Group_1105" data-name="Group 1105" transform="translate(-296.932 -40.932)">
        <path id="Path_1497" data-name="Path 1497" d="M0,0H60.951V60.951H0Z" fill="#f0db4f"/>
        <path id="Path_1498" data-name="Path 1498" d="M316.443,496c-.446-2.781-2.26-5.116-7.63-7.294-1.866-.857-3.946-1.472-4.566-2.885a3.147,3.147,0,0,1-.11-1.784c.4-1.616,2.329-2.121,3.859-1.657a4.246,4.246,0,0,1,2.48,2.3c2.63-1.7,2.625-1.692,4.461-2.862a11.364,11.364,0,0,0-1.472-1.97c-1.582-1.767-3.737-2.677-7.184-2.607-.6.075-1.2.156-1.8.232a8.147,8.147,0,0,0-4.322,2.549,7.98,7.98,0,0,0,1.448,11.362c3.459,2.6,8.54,3.187,9.189,5.614.632,2.972-2.184,3.934-4.983,3.592-2.063-.429-3.21-1.477-4.45-3.384-2.283,1.321-2.283,1.321-4.629,2.671a10.3,10.3,0,0,0,2.074,2.822c4.415,4.479,15.464,4.258,17.445-2.52A8.369,8.369,0,0,0,316.443,496Zm-22.828-18.4h-5.7c0,4.925-.023,9.815-.023,14.74,0,3.134.162,6.008-.348,6.889-.834,1.732-3,1.518-3.98,1.182a4.893,4.893,0,0,1-2.1-2.184,2.935,2.935,0,0,0-.325-.521q-2.32,1.417-4.635,2.839a9.161,9.161,0,0,0,3.36,3.847,11.068,11.068,0,0,0,8.146,1,7.2,7.2,0,0,0,4.6-3.6c1.3-2.393,1.02-5.29,1.008-8.494C293.644,488.069,293.615,482.843,293.615,477.6Z" transform="translate(-260.48 -449.587)" fill="#323330"/>
      </g>
    </g>
    <g id="vuejs-seeklogo.com" transform="translate(-14744.439 6348.328)">
      <path id="Path_1499" data-name="Path 1499" d="M51.26,0H64.074L32.037,55.264,0,0H24.508l7.529,12.815L39.406,0Z" fill="#41b883"/>
      <path id="Path_1500" data-name="Path 1500" d="M0,0,32.037,55.264,64.074,0H51.26L32.037,33.159,12.655,0Z" fill="#41b883"/>
      <path id="Path_1501" data-name="Path 1501" d="M50.56,0,69.943,33.319,89.165,0H77.311L69.943,12.815,62.414,0Z" transform="translate(-37.905)" fill="#35495e"/>
    </g>
    <g id="Group_1107" data-name="Group 1107" transform="translate(192.119 -157.881)">
      <circle id="Ellipse_51" data-name="Ellipse 51" cx="21.5" cy="21.5" r="21.5" transform="translate(-15153.119 6420.881)" fill="#bc310d"/>
      <text id="UI" transform="translate(-15143.118 6451.881)" fill="#fff" font-size="25" font-family="Jost-Medium, Jost" font-weight="500"><tspan x="0" y="0">UI</tspan></text>
    </g>
    <g id="Group_1106" data-name="Group 1106" transform="translate(310.096 -251.904)">
      <circle id="Ellipse_52" data-name="Ellipse 52" cx="22" cy="22" r="22" transform="translate(-15061.096 6514.904)" fill="#2a4355"/>
      <text id="UX" transform="translate(-15053.596 6544.904)" fill="#fff" font-size="23" font-family="Jost-Medium, Jost" font-weight="500"><tspan x="0" y="0">UX</tspan></text>
    </g>
  </g>
</svg>
